<?xml version="1.0" standalone="no"?>
<!DOCTYPE svg PUBLIC "-//W3C//DTD SVG 20010904//EN"
 "http://www.w3.org/TR/2001/REC-SVG-20010904/DTD/svg10.dtd">
<svg version="1.0" xmlns="http://www.w3.org/2000/svg"
 width="100%" height="100%" viewBox="0 0 2048.000000 2048.000000"
 preserveAspectRatio="xMidYMid meet">

<g transform="translate(0.000000,2048.000000) scale(0.100000,-0.100000)"
fill="#000000" stroke="none">
<path d="M15010 16203 c0 -26 3 -34 9 -24 5 8 7 20 4 28 -4 10 6 13 40 13 25
0 49 5 52 10 4 6 -15 10 -49 10 l-56 0 0 -37z"/>
<path d="M15136 16231 c-4 -5 3 -7 14 -4 23 6 26 13 6 13 -8 0 -17 -4 -20 -9z"/>
<path d="M15306 16229 c2 -4 14 -6 26 -4 34 7 35 16 1 13 -18 -1 -30 -5 -27
-9z"/>
<path d="M15388 16229 c13 -5 28 -7 33 -4 4 3 11 -6 15 -21 7 -27 0 -381 -8
-389 -2 -2 -35 -7 -73 -10 -39 -4 -72 -9 -74 -11 -2 -2 35 -4 82 -4 l87 0 0
225 0 225 -42 -1 c-37 0 -40 -2 -20 -10z"/>
<path d="M15287 16129 c7 -7 15 -10 18 -7 3 3 -2 9 -12 12 -14 6 -15 5 -6 -5z"/>
<path d="M12240 16100 c-271 -57 -735 -188 -1040 -295 -255 -90 -810 -320
-810 -336 0 -5 9 -9 20 -9 18 0 20 -7 20 -80 l0 -80 -85 0 -85 0 0 55 c0 30
-2 55 -5 55 -12 0 -291 -138 -438 -216 -669 -358 -1323 -799 -1906 -1287 l-94
-79 -121 121 c-67 67 -126 121 -131 121 -6 0 -48 -38 -95 -85 -47 -47 -89 -85
-94 -85 -5 0 -41 31 -81 69 -165 157 -358 190 -556 95 -65 -31 -98 -60 -317
-277 -134 -133 -264 -270 -289 -305 -64 -89 -93 -176 -93 -282 0 -151 40 -247
152 -364 l68 -71 -106 -106 -106 -106 117 -121 117 -122 -98 -116 c-379 -445
-663 -839 -986 -1364 -382 -622 -712 -1322 -940 -1990 -150 -441 -268 -864
-268 -960 0 -61 24 -111 77 -161 55 -53 99 -72 179 -77 65 -4 77 -2 124 24 65
35 93 71 176 225 168 310 524 876 747 1189 212 295 343 467 533 699 499 607
900 1015 1377 1402 54 44 104 82 110 85 7 2 118 -102 247 -231 129 -129 236
-235 238 -235 2 0 44 41 94 90 49 50 93 90 98 90 8 0 1216 -1208 3994 -3993
2810 -2819 2666 -2676 2732 -2707 82 -40 154 -54 235 -46 131 12 257 68 361
159 23 22 124 123 223 226 141 146 189 203 217 257 94 179 94 397 -2 547 -16
26 -1490 1509 -3332 3353 -1817 1818 -3307 3313 -3312 3321 -6 12 17 40 95
119 l104 104 -224 224 -223 224 23 34 c33 45 206 253 303 363 44 50 199 209
345 355 l266 265 3 -187 2 -188 110 0 c61 0 110 -3 110 -6 0 -4 -8 -13 -17
-21 -10 -8 -13 -12 -6 -9 6 4 14 2 17 -3 3 -5 -1 -11 -9 -15 -8 -3 -15 -13
-15 -21 0 -10 -5 -13 -12 -9 -7 4 -8 3 -4 -5 4 -6 10 -9 14 -7 4 2 7 -6 7 -19
0 -15 -5 -21 -15 -18 -12 4 -13 3 -1 -5 7 -5 10 -15 6 -22 -4 -6 1 -17 11 -25
15 -11 16 -14 4 -15 -10 0 -11 -3 -4 -8 6 -4 14 -15 17 -26 6 -14 3 -17 -8
-12 -12 4 -14 0 -9 -22 4 -15 11 -31 15 -36 5 -6 9 -43 9 -83 l0 -73 121 0
c110 0 120 -2 115 -17 -3 -10 -6 -103 -7 -208 -1 -104 -6 -196 -12 -202 -19
-25 44 -33 264 -33 l219 0 0 -234 0 -235 -32 -4 -33 -4 33 -1 c33 -2 33 -2 32
-49 -1 -27 -1 -126 -1 -220 l1 -173 235 0 235 0 0 -225 0 -225 224 0 c205 0
225 -2 230 -17 5 -15 6 -135 5 -540 0 -89 15 -98 18 -10 1 34 2 68 2 75 1 9
51 12 216 12 l216 0 -1 -215 c-1 -126 -5 -215 -11 -215 -5 0 -9 -4 -9 -9 0 -6
100 -10 245 -11 l245 -1 0 226 0 225 63 1 c81 1 211 1 314 0 l83 -1 2 -457 3
-458 203 -3 c184 -2 202 -4 201 -20 0 -10 -3 -12 -6 -4 -7 19 -29 14 -29 -7 0
-12 5 -17 15 -13 9 3 12 1 7 -6 -4 -7 -1 -12 8 -12 23 0 31 4 29 13 -4 11 25
8 32 -3 4 -6 1 -9 -5 -8 -7 2 -16 -7 -21 -20 -5 -13 -5 -21 0 -18 16 10 18
-29 3 -81 -14 -49 -15 -51 -38 -41 -13 6 -24 15 -24 20 0 4 -4 8 -9 8 -6 0 -8
-9 -6 -20 2 -11 0 -22 -6 -25 -5 -4 -9 -1 -9 5 0 6 -4 9 -9 6 -5 -4 -11 -1
-13 5 -2 7 -22 2 -56 -15 -48 -24 -73 -46 -36 -32 8 3 12 2 9 -4 -3 -5 17 -21
45 -35 27 -14 50 -32 50 -40 0 -17 16 -20 25 -5 3 6 2 10 -4 10 -6 0 -7 7 -4
17 4 11 3 14 -5 9 -7 -4 -12 -3 -12 2 0 6 6 12 14 15 9 4 13 15 10 29 l-5 23
10 -22 c6 -13 13 -23 16 -23 4 0 3 5 0 10 -3 5 -1 10 4 10 6 0 11 9 11 20 0
11 4 20 9 20 5 0 8 -11 5 -25 -9 -50 4 -23 42 85 39 112 43 117 92 111 6 -1
12 3 12 9 0 5 -9 10 -21 10 -11 0 -17 5 -14 10 3 6 18 7 33 4 15 -4 23 -3 19
2 -4 4 -42 11 -85 15 -49 4 12 7 171 7 191 2 247 -1 247 -10 0 -7 5 -5 11 5 9
15 31 17 237 17 l227 0 -3 230 -3 230 -229 0 -230 0 0 230 0 231 463 -3 462
-3 3 463 2 462 230 0 230 0 0 230 0 230 -230 0 -230 0 0 -230 0 -230 -460 0
-460 0 0 -230 0 -230 -234 0 c-215 0 -235 -1 -240 -17 -3 -10 -4 -114 -2 -230
l3 -213 -218 3 c-120 2 -221 6 -225 10 -4 3 -1 13 6 22 7 9 10 18 6 22 -3 3
-6 1 -6 -5 0 -7 -3 -12 -7 -12 -8 0 -11 178 -12 655 l-1 231 -57 0 c-32 1
-135 2 -229 3 l-171 1 1 225 1 225 -236 0 -236 0 1 -216 c1 -118 -1 -218 -4
-222 -3 -4 -18 -8 -35 -9 -30 -1 -350 -4 -393 -3 -23 0 -23 1 -21 125 0 69 5
125 10 125 5 0 9 -8 9 -17 0 -15 2 -15 9 -4 5 8 8 30 5 48 -3 27 -1 31 14 27
14 -5 15 -4 2 5 -8 6 -23 11 -33 11 -10 0 -17 6 -16 13 1 6 1 36 0 65 l-1 52
-230 0 -230 0 0 230 0 230 -224 0 c-167 0 -226 3 -233 13 -10 12 -10 433 -1
442 10 10 883 16 897 6 11 -7 14 -54 15 -232 l1 -224 220 -5 c121 -3 330 -3
465 0 l244 5 2 220 c2 137 6 220 12 220 16 0 23 11 9 15 -6 1 -221 6 -477 9
l-465 6 -3 218 c-2 201 -1 217 15 218 10 0 5 5 -11 9 -16 5 -128 10 -248 11
l-218 2 0 218 c0 122 4 220 9 224 5 3 16 -2 24 -10 21 -20 41 -19 33 2 -6 15
-4 15 14 -2 11 -10 23 -15 27 -12 3 4 1 7 -5 7 -7 0 -12 4 -12 9 0 5 86 10
198 11 108 1 294 2 412 3 l215 2 5 -230 5 -231 225 1 c124 0 330 2 458 3 l232
2 0 228 0 227 -193 -2 c-105 -1 -211 0 -234 3 l-43 5 0 225 0 224 -52 -1 c-40
-1 -47 -3 -28 -8 14 -5 33 -7 43 -5 20 3 19 12 21 -108 1 -91 -7 -128 -17 -75
-2 12 -5 3 -6 -20 -1 -30 3 -41 12 -38 9 4 12 -19 13 -94 l2 -99 -88 0 c-77
-1 -89 2 -93 18 -7 26 -57 22 -58 -5 l0 -20 -9 20 c-6 13 -9 15 -9 5 -1 -16
-61 -23 -61 -8 0 4 11 8 25 8 17 0 25 5 25 18 0 13 -2 14 -9 3 -5 -8 -18 -12
-30 -8 -12 3 -19 1 -16 -3 9 -14 -16 -23 -67 -26 l-48 -2 0 189 c0 110 4 189
9 189 13 0 41 29 41 41 0 6 -4 7 -10 4 -5 -3 -10 -1 -10 4 0 7 38 11 107 11
58 0 104 2 101 5 -4 4 -427 14 -650 15 l-58 0 0 225 0 225 -205 1 c-113 1
-213 2 -222 3 -17 1 -18 -17 -21 -226 -2 -208 -4 -228 -20 -228 -9 -1 -113 0
-229 0 l-213 1 0 -230 0 -229 -26 -6 c-35 -9 -794 -6 -794 3 0 4 26 29 57 57
32 27 109 94 173 149 l115 99 0 151 0 150 103 3 102 3 0 -66 c0 -37 3 -65 8
-63 6 3 334 246 471 349 33 25 49 44 43 48 -8 5 -14 66 -17 174 l-6 167 163
-2 163 -3 3 -68 c3 -80 -27 -90 247 83 296 187 448 276 725 421 137 72 267
143 289 160 58 41 85 99 86 179 0 124 -60 213 -166 244 -67 20 -68 20 -229
-14z m160 -208 c0 -5 -53 -26 -117 -46 -141 -45 -147 -48 -105 -41 43 6 41 -1
-5 -16 -169 -54 -686 -285 -905 -405 -30 -16 -50 -19 -28 -3 11 8 7 9 -17 5
-25 -4 -37 0 -52 15 -18 20 -18 20 -24 0 -2 -10 -1 -23 4 -28 4 -4 -6 -8 -24
-8 -20 0 -31 -5 -30 -12 2 -7 -2 -13 -7 -13 -6 0 -10 7 -10 16 0 8 -4 12 -10
9 -5 -3 -10 1 -10 9 0 9 2 16 4 16 2 0 12 3 22 7 12 4 15 3 10 -5 -5 -8 1 -12
15 -12 18 0 19 2 9 15 -7 9 -10 18 -6 22 3 3 6 1 6 -5 0 -7 9 -3 21 9 11 11
19 22 17 24 -2 1 -31 -11 -65 -27 -56 -27 -61 -32 -47 -46 13 -12 13 -17 2
-24 -10 -7 -9 -8 4 -4 10 3 20 1 23 -4 9 -14 45 -12 45 3 0 8 4 7 10 -3 5 -8
10 -19 10 -25 0 -5 -5 -3 -10 5 -9 13 -10 13 -10 -1 0 -9 -71 -58 -182 -124
-101 -59 -191 -115 -200 -123 -10 -8 -31 -15 -48 -14 -16 0 -32 -3 -35 -8 -3
-4 5 -6 17 -4 22 5 22 4 4 -8 -18 -13 -121 -79 -273 -177 -47 -30 -87 -49 -94
-45 -7 4 -9 3 -6 -3 7 -10 -73 -73 -92 -73 -6 0 -11 -4 -11 -8 0 -5 -31 -31
-70 -58 l-70 -49 -1 -62 c-1 -35 -3 -67 -4 -73 -1 -5 -3 -40 -4 -77 l-1 -68
-139 3 -140 3 -3 25 c-3 26 -4 25 -88 -35 -47 -33 -121 -90 -165 -126 -44 -36
-127 -102 -185 -148 -58 -46 -121 -97 -140 -114 -19 -17 -91 -79 -160 -139
-69 -60 -127 -111 -130 -114 -64 -64 -79 -73 -97 -59 -16 13 -17 12 -4 -4 13
-16 9 -21 -30 -55 -24 -20 -87 -78 -139 -127 -52 -50 -123 -118 -158 -150
l-63 -59 -52 50 c-28 27 -54 50 -56 52 -2 1 -1 5 2 8 4 4 15 1 24 -7 16 -13
17 -12 4 4 -8 9 -21 16 -30 13 -10 -2 -30 12 -51 37 -19 23 -25 33 -12 23 13
-12 22 -14 22 -7 0 7 4 10 9 7 9 -6 22 17 20 37 0 7 -5 3 -10 -8 -8 -17 -9
-16 -5 8 3 27 3 27 -17 10 -20 -17 -20 -17 -15 4 8 29 -7 39 -21 16 -6 -10
-11 -13 -11 -7 0 5 5 15 12 22 6 6 8 15 4 19 -4 4 -12 1 -17 -7 -9 -13 -10
-13 -6 0 2 10 16 15 36 14 30 0 32 2 27 26 -3 15 0 33 7 40 9 9 9 11 0 6 -6
-3 -13 0 -16 6 -3 7 -4 -3 -3 -22 1 -32 -2 -35 -26 -35 -16 -1 -28 3 -28 8 0
5 9 7 20 4 11 -3 20 -1 20 4 0 5 -6 9 -12 9 -9 0 -8 4 2 10 8 5 11 10 6 10
-18 0 -55 -42 -49 -56 3 -8 0 -14 -6 -14 -6 0 -11 5 -11 11 0 6 -7 3 -16 -5
-8 -9 -19 -16 -22 -16 -4 0 -41 34 -82 75 -75 75 -75 76 -54 93 12 9 70 58
130 107 209 174 572 444 824 612 1082 724 2229 1231 3300 1460 41 9 91 19 110
23 19 4 36 8 38 9 1 0 2 -3 2 -7z m-1208 -537 c0 -5 -5 -10 -11 -11 -8 -2 -7
-1 0 3 8 4 7 8 -2 15 -11 8 -11 9 -1 6 8 -2 14 -8 14 -13z m938 -1039 c0 -3
-4 -8 -10 -11 -5 -3 -10 -1 -10 4 0 6 5 11 10 11 6 0 10 -2 10 -4z m5 -36 c-3
-5 -10 -10 -16 -10 -5 0 -9 5 -9 10 0 6 7 10 16 10 8 0 12 -4 9 -10z m-955
-29 c0 -23 5 -30 23 -33 16 -2 23 -11 25 -30 3 -24 0 -28 -22 -28 -25 0 -26
-3 -26 -55 0 -54 0 -55 30 -55 25 0 30 -4 30 -24 0 -27 -27 -38 -72 -29 -38 7
-48 29 -48 101 0 44 -4 61 -15 66 -16 6 -21 46 -5 46 5 0 12 16 16 35 5 30 10
35 35 35 25 0 29 -4 29 -29z m523 -74 c35 -40 37 -96 5 -145 -22 -32 -25 -33
-81 -30 -36 3 -57 0 -56 -6 1 -6 1 -28 0 -49 -1 -36 -3 -38 -28 -35 l-28 3 -1
149 -2 148 37 -6 c20 -3 43 -1 51 4 25 16 73 1 103 -33z m213 28 c23 -10 39
-26 49 -49 27 -63 24 -66 -61 -66 -67 0 -75 -2 -72 -17 3 -15 14 -18 58 -18
52 0 55 -2 55 -25 0 -21 -6 -26 -35 -30 -107 -17 -172 51 -139 143 10 28 25
46 49 58 42 23 51 23 96 4z m-588 -17 c6 -13 16 -40 23 -60 15 -45 24 -48 34
-10 16 63 36 92 66 92 l28 0 -15 -42 c-28 -82 -96 -238 -107 -245 -17 -11 -70
-5 -78 9 -14 22 -10 29 21 39 38 14 38 26 -5 138 -19 49 -35 93 -35 96 0 3 13
5 28 5 20 0 32 -7 40 -22z m1012 -292 c0 -3 -4 -8 -10 -11 -5 -3 -10 -1 -10 4
0 6 5 11 10 11 6 0 10 -2 10 -4z m-5277 -38 c41 -21 122 -91 137 -118 7 -13
-59 -85 -326 -354 -184 -185 -339 -334 -345 -331 -5 4 -8 2 -7 -3 2 -6 -19
-33 -46 -62 l-49 -51 -49 48 c-47 46 -84 100 -80 116 1 4 -3 7 -8 7 -6 0 -10
7 -10 15 0 18 26 20 36 3 5 -7 2 -9 -8 -6 -13 5 -14 3 -4 -17 7 -15 13 -19 18
-12 4 6 5 14 2 18 -2 4 0 10 6 14 5 3 10 11 10 16 0 6 -4 7 -10 4 -6 -3 -7 1
-4 9 3 9 1 16 -5 16 -6 0 -11 -4 -11 -10 0 -5 -9 -10 -20 -10 -11 0 -20 5 -20
11 0 6 7 9 15 5 8 -3 15 -1 15 4 0 6 -7 10 -15 10 -8 0 -15 5 -15 10 0 6 6 10
13 10 8 0 14 7 14 15 0 11 -4 12 -13 4 -17 -14 -7 54 14 96 13 27 140 161 392
415 91 92 161 140 219 150 51 9 109 1 154 -22z m5645 -16 c10 -7 1 -43 -41
-163 -72 -204 -73 -205 -92 -212 -32 -13 -26 26 30 185 74 210 73 209 103 190z
m-208 -85 c0 -31 -4 -35 -60 -62 -33 -16 -60 -31 -60 -34 0 -3 19 -14 43 -24
63 -26 89 -50 85 -77 -3 -22 -5 -22 -98 27 -87 45 -95 52 -95 79 0 26 8 33 90
75 50 26 91 47 93 48 1 1 2 -14 2 -32z m371 -14 c83 -43 89 -48 89 -77 0 -29
-5 -34 -62 -60 -134 -60 -124 -57 -126 -32 -1 19 11 29 68 58 l70 35 -70 34
c-61 30 -70 37 -70 62 0 15 3 27 6 27 3 0 46 -21 95 -47z m-5176 -115 c110
-115 582 -593 1074 -1090 l216 -218 -80 -80 c-45 -45 -86 -78 -93 -75 -7 3
-10 0 -7 -6 10 -16 -484 -509 -504 -502 -14 4 -14 3 -1 -6 14 -10 7 -16 -15
-11 -5 1 -6 -2 -2 -6 4 -4 -23 -38 -60 -76 l-67 -68 -708 708 c-389 389 -708
711 -708 716 0 17 198 207 203 194 3 -10 9 -9 23 5 10 9 13 17 7 17 -6 0 -14
-6 -16 -12 -3 -7 -6 -8 -6 -3 -1 15 107 130 115 123 3 -4 -5 -18 -20 -31 -14
-13 -22 -27 -18 -31 4 -4 3 -6 -3 -4 -5 2 -11 -1 -13 -7 -2 -5 1 -11 6 -13 5
-1 15 11 22 27 7 17 17 29 24 28 6 -1 11 9 11 23 0 27 52 93 66 84 5 -3 9 1 9
8 0 17 256 273 262 262 3 -5 3 -3 1 5 -4 15 134 161 153 161 6 0 64 -55 129
-122z m3055 64 c0 -14 -173 -485 -205 -559 -12 -28 -20 -33 -48 -33 -43 0 -48
6 -35 39 11 28 96 259 160 438 26 73 46 113 57 115 36 8 71 8 71 0z m-350
-152 l0 -41 -95 -46 c-53 -25 -95 -47 -93 -48 2 -2 45 -24 96 -50 l92 -46 0
-40 c0 -25 -5 -39 -12 -39 -7 1 -69 29 -138 64 -109 55 -126 67 -134 94 -5 17
-6 38 -3 47 6 14 257 145 278 145 5 0 9 -18 9 -40z m571 -31 c121 -60 130 -69
122 -125 -5 -32 8 -25 -230 -130 l-53 -24 0 43 0 43 90 39 c50 21 93 42 96 46
2 4 -39 29 -91 55 l-95 47 0 39 c0 48 -1 49 161 -33z m-2811 1 c-8 -5 -17 -7
-19 -4 -3 3 1 9 9 14 8 5 17 7 19 4 3 -3 -1 -9 -9 -14z m27 -12 c-3 -8 -6 -5
-6 6 -1 11 2 17 5 13 3 -3 4 -12 1 -19z m1828 -248 c-3 -5 -11 -10 -16 -10 -6
0 -7 5 -4 10 3 6 11 10 16 10 6 0 7 -4 4 -10z m2138 -477 c-30 -87 -62 -177
-70 -200 -13 -37 -19 -43 -44 -43 l-29 0 56 158 c31 86 62 176 71 200 13 36
19 42 43 42 l29 0 -56 -157z m-176 60 c-2 -23 -13 -34 -66 -62 l-64 -34 30
-12 c63 -27 112 -64 110 -85 -1 -11 -6 -20 -12 -20 -6 0 -49 20 -95 43 -69 35
-86 49 -88 69 -2 13 3 30 10 35 17 14 161 93 170 93 4 0 6 -12 5 -27z m373
-28 c76 -38 90 -49 90 -69 0 -20 -15 -32 -89 -70 -49 -25 -92 -46 -96 -46 -3
0 -5 12 -3 28 2 22 13 32 61 54 31 15 57 31 57 36 0 4 -29 22 -65 40 -48 23
-65 37 -65 52 0 11 5 20 10 20 6 0 51 -20 100 -45z m-5845 -707 c112 -122 105
-111 87 -128 -14 -13 -15 -12 -9 3 10 26 -7 13 -44 -36 -20 -25 -24 -34 -11
-23 12 11 24 17 27 14 3 -3 -1 -11 -10 -18 -8 -7 -15 -17 -15 -23 0 -5 8 0 19
11 19 22 37 30 26 12 -3 -5 -1 -10 5 -10 6 0 8 -5 4 -12 -5 -8 0 -7 11 2 10 8
16 10 12 3 -11 -18 4 -45 21 -38 8 3 20 1 27 -5 11 -9 12 -7 8 9 -3 12 -9 21
-13 21 -4 0 -12 11 -18 25 -6 14 -16 25 -22 25 -6 0 -8 -5 -5 -10 4 -6 -5 -5
-19 2 -14 6 -26 15 -26 20 0 12 14 10 29 -4 8 -8 11 -8 8 -2 -4 7 -1 16 6 22
10 8 43 -19 135 -109 l122 -120 -42 -47 c-106 -116 -282 -291 -289 -286 -5 3
-6 -3 -2 -12 5 -13 2 -16 -9 -12 -9 4 -15 1 -14 -6 0 -7 -57 -78 -129 -157
-71 -79 -190 -215 -264 -301 -74 -87 -139 -154 -144 -151 -6 3 -7 1 -3 -6 9
-13 -12 -44 -24 -36 -4 3 -10 -6 -14 -18 -3 -13 -26 -46 -51 -72 -25 -27 -45
-52 -45 -57 0 -4 -4 -8 -9 -8 -10 0 -9 19 2 37 5 8 1 8 -18 0 -14 -7 -19 -14
-12 -17 26 -11 13 -46 -43 -116 -31 -40 -60 -70 -64 -66 -4 3 -4 -2 0 -13 6
-15 4 -17 -10 -12 -10 4 -15 3 -11 -4 9 -14 -96 -151 -112 -145 -7 3 -10 -1
-7 -9 7 -16 -132 -210 -150 -210 -6 0 -10 6 -8 13 1 8 -2 11 -7 8 -5 -4 -12 0
-14 6 -3 8 -6 6 -6 -4 -1 -11 -8 -17 -18 -16 -37 3 -53 -2 -53 -17 0 -14 3
-13 25 1 14 9 25 12 25 6 0 -5 -10 -13 -22 -17 -45 -14 -68 -16 -68 -4 0 6 7
9 14 6 10 -4 13 -1 9 9 -4 10 2 17 16 21 11 3 21 9 21 15 0 5 -8 4 -19 -2 -12
-6 -22 -6 -26 -1 -3 5 2 11 10 13 13 3 13 6 0 32 -8 15 -15 40 -15 55 l1 26
13 -25 c8 -14 12 -29 9 -34 -4 -5 -1 -6 5 -2 8 5 8 13 0 32 -10 20 -9 27 3 35
10 8 7 8 -11 3 -22 -6 -23 -5 -11 10 8 9 12 19 9 21 -3 3 -20 -21 -37 -52 -18
-32 -47 -82 -63 -112 -17 -30 -26 -51 -20 -47 6 3 12 1 15 -6 2 -7 2 -3 0 10
-2 12 1 22 7 22 11 0 14 -18 11 -65 -1 -23 0 -27 8 -15 10 13 11 13 12 0 0 -8
4 -4 8 10 4 16 2 30 -6 38 -7 7 -13 19 -13 25 0 7 5 4 11 -6 6 -9 15 -15 20
-11 7 4 8 -8 3 -33 -6 -32 -5 -36 7 -27 11 9 17 9 27 -2 10 -11 10 -14 0 -15
-10 0 -10 -2 0 -6 6 -2 12 -10 12 -17 0 -7 7 -13 14 -13 11 0 13 5 5 18 -7 15
-6 17 6 13 11 -5 14 -2 9 12 -5 16 -4 16 5 4 7 -10 11 -11 11 -2 0 6 4 12 9
12 5 0 -2 -20 -16 -45 -23 -42 -43 -58 -43 -34 0 5 -5 7 -11 3 -8 -5 -7 -9 4
-16 13 -7 4 -26 -56 -118 -40 -60 -84 -131 -99 -157 -16 -27 -34 -57 -40 -67
-7 -11 -39 -60 -70 -110 -52 -81 -63 -92 -59 -61 1 6 -6 1 -15 -10 -16 -20
-16 -20 -11 4 l6 23 -20 -21 c-25 -27 -26 -26 -26 5 0 18 4 24 14 19 12 -4 14
1 9 27 -4 18 -7 43 -8 56 0 22 -1 22 -14 5 -11 -14 -14 -15 -14 -3 -1 8 -14
-11 -31 -43 -16 -32 -27 -63 -23 -69 4 -6 3 -8 -3 -5 -15 9 -65 -106 -56 -129
4 -11 3 -15 -5 -10 -6 3 -14 1 -18 -5 -5 -8 -3 -9 6 -4 8 5 11 3 9 -4 -3 -7
-8 -11 -12 -9 -11 4 -31 -31 -23 -39 3 -4 6 -1 6 5 0 20 20 13 30 -10 8 -22 9
-22 9 -3 1 13 8 21 20 22 13 1 18 -3 15 -12 -10 -25 15 -25 35 1 24 30 27 27
8 -8 -7 -14 -20 -24 -30 -22 -9 1 -20 -3 -24 -8 -3 -7 -1 -8 6 -4 6 4 14 0 18
-9 3 -10 0 -21 -8 -26 -8 -5 -10 -9 -6 -9 5 0 -11 -37 -36 -82 -24 -46 -73
-138 -107 -205 -63 -121 -84 -145 -93 -100 -3 18 -5 17 -7 -8 -2 -28 -3 -27
-10 10 -4 22 -3 51 2 65 6 16 6 21 0 15 -9 -10 -113 -266 -127 -313 -6 -22 -5
-23 14 -13 20 11 25 8 22 -12 -1 -5 3 -6 9 -2 17 11 12 -8 -34 -116 -68 -160
-82 -189 -90 -182 -4 4 -4 0 0 -10 3 -10 1 -17 -6 -17 -6 0 -8 -4 -5 -10 3 -5
1 -10 -4 -10 -6 0 -11 8 -12 18 0 11 -2 12 -6 4 -3 -7 0 -19 7 -27 8 -10 8
-19 0 -34 -13 -25 -22 -28 -13 -4 4 10 2 14 -5 10 -6 -4 -13 -22 -17 -40 -12
-59 -26 -97 -37 -97 -22 0 13 162 103 475 118 411 283 852 476 1275 90 197
276 572 331 667 21 37 70 122 107 188 166 291 398 649 619 955 188 260 552
714 577 719 3 0 27 -23 54 -51z m5734 -3474 c2172 -2175 3309 -3321 3323
-3348 44 -85 32 -217 -26 -303 -32 -46 -195 -213 -208 -213 -6 0 -9 -3 -6 -6
4 -3 -10 -20 -30 -39 l-37 -33 -16 25 c-9 14 -14 33 -12 44 3 10 1 19 -5 19
-6 0 -9 -11 -7 -25 3 -31 -20 -46 -52 -34 -17 6 -25 4 -32 -9 -6 -9 -11 -13
-11 -8 0 12 31 46 42 46 5 0 6 -4 3 -10 -3 -6 -1 -10 5 -10 6 0 8 10 4 25 -4
16 -2 25 5 25 7 0 11 -6 10 -12 -3 -25 1 -38 12 -38 6 0 7 5 2 12 -4 7 -6 21
-5 31 5 25 -17 21 -44 -8 -24 -26 -50 -25 -57 3 -3 12 -5 10 -6 -5 -1 -15 5
-23 15 -23 8 0 12 -5 9 -11 -4 -6 -12 -8 -19 -6 -7 3 -23 -4 -37 -15 -13 -11
-19 -17 -12 -14 15 8 44 -4 37 -15 -3 -5 0 -9 6 -9 7 0 10 -7 6 -15 -3 -8 -2
-14 2 -14 27 4 62 -3 57 -11 -3 -5 1 -10 10 -10 9 0 13 4 10 10 -3 5 2 10 12
10 28 -1 -101 -119 -156 -143 -56 -25 -125 -26 -183 -4 -47 18 -186 151 -170
161 6 3 12 0 15 -8 4 -9 14 -12 27 -9 16 4 19 2 14 -11 -3 -9 -1 -16 5 -16 6
0 10 5 9 12 -2 6 8 17 22 25 14 7 19 13 12 13 -6 0 -11 5 -10 12 2 7 -3 13 -9
14 -29 4 -26 7 12 14 l40 7 -42 2 c-30 1 -43 -3 -43 -12 0 -8 -7 -14 -15 -14
-11 0 -12 4 -4 14 9 10 8 13 -2 14 -10 0 -11 2 -1 6 6 2 12 11 12 19 0 10 -6
11 -26 4 -16 -7 -23 -7 -19 0 3 6 1 10 -4 10 -6 0 -11 -9 -11 -20 0 -12 5 -17
13 -14 7 2 13 -4 14 -16 2 -22 -12 -27 -20 -7 -4 9 -8 8 -16 -3 -9 -12 -48 22
-212 188 -142 143 -198 206 -189 212 7 4 9 13 6 19 -11 17 -26 13 -19 -5 4
-12 2 -15 -8 -12 -8 3 -13 11 -11 17 1 6 -2 11 -7 11 -12 0 -91 78 -91 90 0 5
-9 12 -20 15 -11 3 -20 11 -20 16 0 12 17 12 25 -1 8 -13 25 -13 25 1 0 5 -4
8 -9 4 -5 -3 -13 0 -16 6 -4 5 -14 8 -23 4 -10 -4 -45 25 -109 92 -90 93 -342
347 -775 780 -108 109 -195 200 -192 203 3 3 14 -5 24 -17 10 -13 21 -23 25
-23 4 0 16 -10 26 -21 15 -18 21 -20 34 -9 12 10 15 10 15 0 0 -9 6 -8 19 4
15 13 20 14 24 4 4 -9 6 -9 6 -1 1 16 -22 29 -27 15 -8 -25 -22 -11 -16 16 4
15 4 25 1 22 -3 -3 -5 -7 -4 -10 0 -3 -5 -15 -12 -28 l-12 -23 -34 33 c-38 35
-40 49 -3 24 28 -20 49 -21 22 -1 -20 15 -16 18 31 16 32 -1 27 4 -18 13 -16
4 -25 11 -21 17 3 6 12 8 20 5 22 -8 17 2 -7 15 -13 7 -19 7 -15 1 3 -6 2 -13
-3 -16 -5 -3 -12 1 -15 10 -7 19 14 42 34 36 12 -4 13 -2 2 9 -10 11 -17 9
-39 -14 -15 -15 -22 -27 -15 -27 7 0 11 -4 7 -10 -3 -5 -13 -7 -23 -4 -14 5
-15 4 -2 -5 8 -5 11 -14 6 -18 -12 -13 -38 28 -26 43 7 8 6 13 -3 17 -10 4
-13 -4 -12 -29 0 -19 -3 -33 -8 -31 -5 1 -76 70 -158 152 -94 95 -143 151
-134 153 13 3 13 5 -1 19 -8 9 -13 22 -10 30 4 8 1 11 -5 7 -6 -3 -8 -15 -6
-26 3 -10 2 -18 -3 -16 -12 4 -1340 1327 -1340 1334 0 3 7 4 15 1 8 -4 17 -2
20 2 2 5 -5 11 -16 14 -16 4 -19 11 -14 29 5 19 4 20 -5 8 -9 -11 -13 -12 -17
-2 -2 6 -12 12 -21 12 -13 0 -9 -7 12 -25 16 -14 26 -28 23 -32 -4 -3 -34 21
-67 55 -56 58 -74 82 -50 67 6 -3 10 -1 10 4 0 6 -10 10 -22 8 -17 -1 -22 3
-20 17 2 11 -1 15 -8 11 -19 -12 -71 45 -64 69 4 17 3 18 -5 6 -9 -12 -108 83
-526 504 -382 385 -513 522 -503 529 9 6 7 7 -6 3 -25 -8 -58 26 -50 51 4 13
3 14 -3 5 -14 -19 -284 252 -277 276 5 14 4 15 -5 2 -9 -13 -14 -10 -36 15
-14 17 -362 366 -772 777 -411 411 -744 751 -739 755 4 4 11 1 16 -7 26 -43
35 -49 57 -44 13 4 23 2 23 -5 0 -6 -7 -8 -15 -5 -22 9 -19 -9 4 -23 16 -10
20 -9 24 9 4 13 0 26 -10 33 -16 12 -9 40 7 30 5 -3 11 -1 15 5 6 9 -7 14 -27
11 -5 0 -8 5 -8 12 0 6 -12 18 -27 25 -20 9 -24 9 -15 0 17 -17 15 -23 -10
-24 -13 0 -32 -4 -43 -9 -20 -8 -20 -8 -1 13 10 12 24 19 30 15 6 -3 8 -3 4 2
-11 11 12 36 25 28 6 -3 7 -1 3 5 -9 15 603 634 617 625 6 -3 7 -1 3 5 -8 13
51 82 69 82 7 0 1498 -1488 3314 -3306z m-569 3256 c0 -5 -4 -10 -10 -10 -5 0
-10 5 -10 10 0 6 5 10 10 10 6 0 10 -4 10 -10z m0 -30 c0 -5 -4 -10 -10 -10
-5 0 -10 5 -10 10 0 6 5 10 10 10 6 0 10 -4 10 -10z m440 -469 c0 -34 -3 -39
-29 -44 -26 -5 -29 -11 -34 -59 -4 -29 -7 -67 -7 -84 0 -17 -10 -44 -22 -59
-21 -27 -21 -27 -2 -59 13 -21 21 -57 24 -116 l5 -84 33 -10 c30 -8 33 -12 30
-45 l-3 -36 -49 1 c-42 0 -53 5 -77 32 -28 31 -29 37 -29 127 l0 94 -31 18
c-27 16 -30 22 -25 51 3 19 16 42 30 53 24 19 26 26 26 106 0 83 1 86 34 119
29 29 41 34 80 34 l46 0 0 -39z m360 36 c0 -9 -108 -303 -162 -439 l-62 -158
-37 0 -38 0 16 45 c8 25 18 43 21 41 4 -2 8 9 9 24 2 28 158 456 174 475 7 10
79 21 79 12z m180 -12 c44 -23 60 -63 60 -149 0 -72 2 -77 30 -103 20 -17 30
-36 30 -55 0 -15 -4 -28 -8 -28 -5 0 -18 -9 -30 -20 -19 -18 -22 -31 -22 -100
0 -43 -4 -90 -10 -104 -11 -29 -55 -55 -102 -58 -32 -3 -33 -2 -33 37 0 34 4
40 25 45 24 6 25 10 30 97 4 69 10 96 23 111 18 19 17 21 -2 58 -16 29 -21 57
-21 109 0 76 -9 95 -47 95 -20 0 -23 5 -23 40 0 39 1 40 35 40 20 0 49 -7 65
-15z m1882 -65 c-2 -8 -32 -91 -67 -185 -35 -93 -71 -196 -81 -227 -17 -57
-18 -58 -55 -58 l-38 0 25 68 c14 37 52 142 85 235 32 92 60 171 63 176 3 4
20 8 38 7 24 -1 32 -5 30 -16z m-282 -105 c0 -34 -3 -36 -82 -76 l-83 -42 83
-41 c79 -39 82 -42 79 -71 -2 -17 -9 -29 -16 -27 -36 8 -184 85 -206 106 -41
41 -24 62 101 128 60 32 112 58 117 58 4 0 7 -16 7 -35z m435 -9 c141 -69 170
-101 128 -138 -10 -9 -64 -39 -120 -67 -83 -41 -102 -48 -107 -35 -16 40 -6
52 69 88 42 20 80 36 85 36 26 0 2 19 -73 56 -74 38 -82 45 -85 73 -2 17 0 31
4 31 5 0 49 -20 99 -44z m-6465 -76 c0 -5 -2 -10 -4 -10 -3 0 -8 5 -11 10 -3
6 -1 10 4 10 6 0 11 -4 11 -10z m30 -26 c0 -8 -4 -12 -10 -9 -5 3 -10 10 -10
16 0 5 5 9 10 9 6 0 10 -7 10 -16z m-3015 -1033 c-21 -43 -29 -39 -8 4 9 19
18 33 21 31 2 -2 -4 -18 -13 -35z m7975 14 c0 -21 -5 -25 -30 -25 -22 0 -30 5
-30 18 0 25 9 32 37 32 18 0 23 -5 23 -25z m517 -120 l0 -145 -24 0 c-18 0
-24 4 -19 15 3 8 2 15 -3 15 -5 0 -14 -7 -21 -15 -8 -9 -29 -15 -56 -15 -37 0
-46 5 -67 33 -13 17 -24 45 -25 60 -2 38 22 93 47 106 16 9 71 10 99 2 11 -3
16 9 15 39 -1 44 3 50 31 50 22 0 22 -1 23 -145z m-8466 88 c-11 -5 -11 -7 0
-14 11 -7 10 -9 -3 -9 -10 0 -18 7 -18 15 0 8 8 15 18 14 12 0 13 -2 3 -6z
m8667 -27 c24 -8 48 -46 53 -86 4 -25 3 -25 -73 -28 -57 -2 -78 -6 -78 -16 0
-26 51 -39 98 -26 28 7 32 6 32 -10 0 -25 -29 -40 -79 -40 -80 0 -128 89 -90
166 22 43 77 59 137 40z m-721 -101 l1 -105 -28 0 -28 0 -1 105 -2 105 28 0
29 0 1 -105z m210 100 c28 -6 43 -52 43 -136 0 -67 -1 -69 -25 -69 -24 0 -25
2 -25 75 0 65 -3 76 -20 85 -29 15 -59 3 -66 -26 -4 -14 -4 -49 -2 -79 5 -55
5 -55 -24 -55 l-29 0 2 98 c1 53 3 99 4 102 5 7 113 11 142 5z m672 -21 l21
-27 20 26 c14 18 30 25 49 25 29 -1 29 -1 13 -27 -9 -14 -24 -37 -34 -50 -10
-14 -15 -27 -11 -30 4 -3 23 -27 40 -53 l33 -48 -33 0 c-26 0 -36 6 -50 30
-10 17 -22 30 -27 30 -4 0 -14 -13 -22 -30 -11 -25 -19 -30 -46 -30 -36 0 -37
-3 11 68 l28 42 -30 46 c-17 25 -31 47 -31 50 0 2 11 4 24 4 15 0 33 -11 45
-26z m-8851 -9 c-3 -3 -9 2 -12 12 -6 14 -5 15 5 6 7 -7 10 -15 7 -18z m146
-21 c4 -10 2 -13 -6 -8 -8 5 -9 2 -5 -10 4 -10 3 -15 -3 -11 -6 3 -10 2 -10
-3 0 -6 -8 -13 -17 -16 -16 -6 -16 -5 0 12 10 11 17 23 16 28 -5 27 15 34 25
8z m-96 -48 c-7 -8 -15 -12 -17 -11 -5 6 10 25 20 25 5 0 4 -6 -3 -14z m8062
-464 c0 -4 -10 -9 -22 -9 -18 -2 -20 0 -8 7 18 12 30 13 30 2z m10 -47 c0 -2
-9 -3 -19 -2 -11 0 -18 5 -15 9 4 6 34 0 34 -7z m-8480 -35 c5 8 9 7 13 -5 4
-9 3 -14 -3 -10 -13 8 -40 -54 -32 -74 3 -9 1 -12 -4 -8 -4 4 -9 24 -10 43 0
22 2 30 7 22 9 -14 13 -2 10 32 0 12 1 12 6 1 4 -10 7 -10 13 -1z m36 -162
c-9 -12 -16 -19 -16 -15 0 11 24 47 28 42 2 -2 -3 -14 -12 -27z m-114 3 c8 11
9 10 4 -3 -4 -14 0 -18 17 -18 18 -1 19 -2 6 -10 -11 -7 -16 -21 -14 -50 1
-22 -2 -43 -7 -46 -4 -3 -8 -2 -7 3 4 22 -2 34 -13 26 -27 -16 -37 -12 -28 13
5 13 7 31 3 41 -4 11 -3 14 5 9 12 -7 15 3 13 34 0 12 1 12 6 1 4 -11 7 -11
15 0z m81 -15 c14 -20 14 -25 2 -29 -7 -3 -19 2 -27 11 -11 13 -11 14 1 7 11
-6 13 -3 9 13 -8 28 -4 28 15 -2z m-5 -54 c2 -7 -2 -10 -12 -6 -9 3 -16 1 -16
-5 0 -6 -5 -11 -10 -11 -6 0 -5 8 2 20 13 21 29 22 36 2z m-368 -581 c0 -10
-6 -21 -14 -24 -11 -4 -11 -1 -2 19 13 29 16 30 16 5z m57 -3 c-3 -8 -6 -5 -6
6 -1 11 2 17 5 13 3 -3 4 -12 1 -19z m-65 -60 c-8 -8 -9 -4 -5 13 4 13 8 18
11 10 2 -7 -1 -18 -6 -23z m25 -20 c-3 -8 -6 -5 -6 6 -1 11 2 17 5 13 3 -3 4
-12 1 -19z m-66 -25 c-12 -20 -14 -14 -5 12 4 9 9 14 11 11 3 -2 0 -13 -6 -23z
m26 -15 c-3 -8 -6 -5 -6 6 -1 11 2 17 5 13 3 -3 4 -12 1 -19z m-46 -45 c-12
-20 -14 -14 -5 12 4 9 9 14 11 11 3 -2 0 -13 -6 -23z m44 -21 c-6 -7 -34 11
-29 19 3 5 11 3 19 -4 7 -6 12 -13 10 -15z m8586 -2065 c-1 -12 -15 -9 -19 4
-3 6 1 10 8 8 6 -3 11 -8 11 -12z m2039 -1643 c0 -2 -7 -4 -15 -4 -8 0 -15 4
-15 10 0 5 7 7 15 4 8 -4 15 -8 15 -10z m130 -18 c-1 -20 -28 -48 -35 -37 -3
6 -1 11 6 11 6 0 9 8 7 18 -3 11 0 19 8 19 8 0 14 -5 14 -11z m-103 -2 c-3 -3
-12 -4 -19 -1 -8 3 -5 6 6 6 11 1 17 -2 13 -5z m-2 -24 c-3 -5 -12 -10 -18
-10 -7 0 -6 4 3 10 19 12 23 12 15 0z m42 -6 c-3 -3 -12 -4 -19 -1 -8 3 -5 6
6 6 11 1 17 -2 13 -5z"/>
<path d="M11885 15700 c-3 -6 1 -7 9 -4 18 7 21 14 7 14 -6 0 -13 -4 -16 -10z"/>
<path d="M11088 15313 c7 -3 16 -2 19 1 4 3 -2 6 -13 5 -11 0 -14 -3 -6 -6z"/>
<path d="M10089 14903 c-13 -16 -12 -17 4 -4 16 13 21 21 13 21 -2 0 -10 -8
-17 -17z"/>
<path d="M10040 14880 c-8 -5 -12 -11 -10 -14 3 -2 14 2 24 10 22 15 10 19
-14 4z"/>
<path d="M9692 14670 c-34 -22 -62 -42 -62 -45 0 -6 120 66 126 76 9 15 1 11
-64 -31z"/>
<path d="M9780 14648 c0 -4 14 -8 30 -8 17 0 30 2 30 4 0 2 -13 6 -30 8 -16 3
-30 1 -30 -4z"/>
<path d="M9744 14635 c-7 -18 2 -174 10 -183 3 -3 6 40 6 96 0 98 -4 119 -16
87z"/>
<path d="M9711 14594 c0 -11 3 -14 6 -6 3 7 2 16 -1 19 -3 4 -6 -2 -5 -13z"/>
<path d="M9526 14565 c-11 -8 -15 -15 -9 -15 6 0 16 7 23 15 16 19 11 19 -14
0z"/>
<path d="M9455 14520 c-16 -11 -25 -20 -20 -20 6 0 24 9 40 20 17 11 26 20 20
20 -5 0 -23 -9 -40 -20z"/>
<path d="M9339 14439 l-24 -20 28 17 c15 9 27 18 27 20 0 8 -8 4 -31 -17z"/>
<path d="M8580 13887 c-30 -23 -68 -54 -83 -68 l-29 -26 31 2 c33 2 49 11 38
21 -4 4 -13 1 -22 -6 -9 -8 -15 -8 -15 -2 0 6 9 14 20 17 11 3 20 11 20 16 0
6 5 7 10 4 6 -3 10 -1 10 5 0 6 5 8 12 4 7 -5 8 -3 3 6 -6 10 -4 12 8 7 10 -4
14 -2 11 7 -3 7 7 18 21 26 14 7 25 17 25 22 0 12 0 12 -60 -35z"/>
<path d="M8551 13831 c-9 -6 -10 -11 -2 -15 6 -4 11 -1 11 6 0 10 3 9 10 -2 5
-8 12 -11 15 -8 8 7 -2 28 -13 28 -4 0 -13 -4 -21 -9z"/>
<path d="M8429 13763 c-13 -17 -13 -17 6 -3 11 8 22 16 24 17 2 2 0 3 -6 3 -6
0 -17 -8 -24 -17z"/>
<path d="M8750 13669 c0 -5 5 -7 10 -4 6 3 10 8 10 11 0 2 -4 4 -10 4 -5 0
-10 -5 -10 -11z"/>
<path d="M8289 13643 c-13 -16 -12 -17 4 -4 9 7 17 15 17 17 0 8 -8 3 -21 -13z"/>
<path d="M8240 13520 c0 -5 5 -10 11 -10 5 0 7 5 4 10 -3 6 -8 10 -11 10 -2 0
-4 -4 -4 -10z"/>
<path d="M8272 13413 c-6 -2 -10 -9 -7 -13 3 -5 13 -6 22 -3 10 4 14 2 10 -4
-3 -5 0 -10 7 -10 11 0 12 4 3 19 -12 19 -14 20 -35 11z"/>
<path d="M11587 14153 c-4 -3 -7 -26 -7 -49 0 -38 3 -44 24 -50 53 -13 83 35
56 87 -10 19 -59 27 -73 12z"/>
<path d="M11836 14154 c-23 -22 -21 -24 29 -24 32 0 45 4 45 14 0 27 -50 34
-74 10z"/>
<path d="M6310 13189 c0 -5 5 -7 10 -4 6 3 10 8 10 11 0 2 -4 4 -10 4 -5 0
-10 -5 -10 -11z"/>
<path d="M6332 13090 c-7 -20 -5 -30 12 -51 14 -17 25 -23 32 -17 8 5 14 3 18
-7 3 -9 2 -13 -4 -10 -6 3 -10 1 -10 -4 0 -17 48 -8 53 9 4 15 -4 18 -54 21
-11 0 -15 8 -13 25 1 13 -2 22 -7 18 -5 -3 -7 -10 -4 -15 4 -5 2 -9 -3 -9 -16
0 -22 13 -11 26 6 7 9 19 6 26 -3 8 -9 3 -15 -12z"/>
<path d="M6452 12999 c-18 -17 -32 -26 -32 -20 0 7 -5 9 -11 5 -8 -5 -6 -10 5
-16 14 -8 24 -3 47 23 28 31 33 39 26 39 -2 0 -18 -14 -35 -31z"/>
<path d="M7440 13549 c0 -7 48 -57 73 -78 32 -25 17 -5 -28 39 -25 24 -45 42
-45 39z"/>
<path d="M7165 13320 c-3 -5 1 -10 10 -10 9 0 13 5 10 10 -3 6 -8 10 -10 10
-2 0 -7 -4 -10 -10z"/>
<path d="M7105 13277 c-20 -23 -22 -67 -4 -67 6 0 7 5 3 12 -5 8 -2 9 10 5 12
-5 16 -3 13 5 -2 7 -11 12 -18 10 -8 -2 -4 7 9 20 12 14 22 27 22 31 0 13 -15
6 -35 -16z"/>
<path d="M7140 13275 c-7 -9 -8 -15 -2 -15 5 0 12 7 16 15 3 8 4 15 2 15 -2 0
-9 -7 -16 -15z"/>
<path d="M6985 13150 c-3 -6 1 -13 10 -16 21 -9 26 -2 10 13 -9 8 -16 9 -20 3z"/>
<path d="M7790 13151 c0 -5 7 -12 16 -15 14 -5 15 -4 4 9 -14 17 -20 19 -20 6z"/>
<path d="M7820 13116 c0 -2 7 -7 16 -10 8 -3 12 -2 9 4 -6 10 -25 14 -25 6z"/>
<path d="M7735 13099 c-4 -6 3 -21 16 -35 22 -23 39 -19 39 11 0 6 -4 4 -9 -4
-8 -12 -12 -11 -27 3 -14 15 -15 19 -3 27 9 5 10 9 2 9 -6 0 -15 -5 -18 -11z"/>
<path d="M7860 13080 c0 -5 5 -10 11 -10 5 0 7 5 4 10 -3 6 -8 10 -11 10 -2 0
-4 -4 -4 -10z"/>
<path d="M7910 13066 c0 -2 8 -10 18 -17 15 -13 16 -12 3 4 -13 16 -21 21 -21
13z"/>
<path d="M8270 12706 c0 -2 8 -10 18 -17 15 -13 16 -12 3 4 -13 16 -21 21 -21
13z"/>
<path d="M8310 12660 c0 -5 5 -10 10 -10 6 0 10 -5 10 -11 0 -5 -4 -7 -10 -4
-5 3 -10 -1 -10 -9 0 -19 16 -21 23 -3 3 8 20 -2 48 -28 33 -30 31 -26 -11 18
-58 61 -60 62 -60 47z"/>
<path d="M8250 12581 c0 -14 5 -19 15 -14 17 6 15 25 -3 31 -7 2 -12 -5 -12
-17z"/>
<path d="M8315 12590 c-4 -6 -11 -7 -17 -4 -7 4 -8 2 -4 -4 7 -12 36 -5 36 9
0 12 -7 11 -15 -1z"/>
<path d="M8271 12551 c-10 -6 -10 -10 -1 -16 7 -4 18 -21 26 -39 7 -17 13 -25
14 -18 0 7 -5 23 -11 35 -9 16 -9 22 0 25 6 2 9 8 5 13 -7 11 -15 11 -33 0z"/>
<path d="M8076 12428 c9 -16 21 -28 26 -28 6 0 8 -6 5 -14 -4 -10 0 -12 14 -9
19 5 19 6 -3 21 -13 9 -31 26 -41 37 -18 19 -18 19 -1 -7z"/>
<path d="M8053 12405 c0 -8 6 -16 14 -19 7 -3 13 -2 13 3 0 5 -6 14 -13 20
-10 8 -14 7 -14 -4z"/>
<path d="M8159 12361 c12 -8 51 -4 51 5 0 2 -15 4 -32 4 -23 0 -29 -3 -19 -9z"/>
<path d="M8681 12293 c8 -13 17 -23 22 -23 4 0 16 -15 27 -32 11 -18 20 -29
20 -24 0 4 8 0 18 -11 9 -10 13 -12 7 -3 -17 26 -108 116 -94 93z"/>
<path d="M8662 12266 c7 -8 15 -12 17 -11 5 6 -10 25 -20 25 -5 0 -4 -6 3 -14z"/>
<path d="M8505 11879 c-4 -6 -4 -13 -1 -16 3 -4 6 -1 6 6 0 7 5 9 12 5 7 -4 8
-3 4 4 -9 15 -13 15 -21 1z"/>
<path d="M8185 11550 c-3 -6 1 -7 9 -4 18 7 21 14 7 14 -6 0 -13 -4 -16 -10z"/>
<path d="M6610 11954 c0 -10 96 -114 105 -114 12 0 2 12 -50 66 -30 32 -55 53
-55 48z"/>
<path d="M6347 11715 c-20 -24 -24 -34 -14 -38 19 -7 41 8 32 22 -4 7 -1 19 6
27 6 8 10 16 8 18 -2 1 -16 -12 -32 -29z"/>
<path d="M6307 11664 c-12 -12 5 -32 24 -27 10 3 16 9 14 14 -3 4 -13 5 -22 2
-11 -4 -14 -3 -9 5 8 13 3 16 -7 6z"/>
<path d="M6595 11500 c-11 -5 -16 -9 -11 -9 5 -1 1 -11 -10 -23 -10 -13 -4
-10 14 6 17 17 32 31 32 33 0 4 0 4 -25 -7z"/>
<path d="M6530 11431 c0 -6 4 -13 10 -16 6 -3 7 1 4 9 -7 18 -14 21 -14 7z"/>
<path d="M6500 11419 c0 -5 5 -7 10 -4 6 3 10 8 10 11 0 2 -4 4 -10 4 -5 0
-10 -5 -10 -11z"/>
<path d="M5952 11210 c-27 -37 -29 -52 -2 -19 11 13 24 30 30 37 6 6 7 12 2
12 -4 0 -18 -13 -30 -30z"/>
<path d="M5885 11120 c-3 -5 -1 -10 4 -10 6 0 11 5 11 10 0 6 -2 10 -4 10 -3
0 -8 -4 -11 -10z"/>
<path d="M5810 10990 c0 -5 5 -10 11 -10 5 0 7 5 4 10 -3 6 -8 10 -11 10 -2 0
-4 -4 -4 -10z"/>
<path d="M5850 10970 c0 -5 5 -10 11 -10 5 0 7 5 4 10 -3 6 -8 10 -11 10 -2 0
-4 -4 -4 -10z"/>
<path d="M5735 10911 c-3 -5 -2 -12 3 -15 5 -3 9 1 9 9 0 17 -3 19 -12 6z"/>
<path d="M5715 10879 c-4 -6 -5 -12 -2 -15 2 -3 7 2 10 11 7 17 1 20 -8 4z"/>
<path d="M5696 10798 c3 -5 10 -6 15 -3 13 9 11 12 -6 12 -8 0 -12 -4 -9 -9z"/>
<path d="M5622 10748 c-55 -81 -84 -130 -71 -122 9 5 10 2 6 -9 -3 -10 -2 -17
4 -17 6 0 9 8 8 18 -3 22 18 72 30 72 5 0 12 -6 15 -12 3 -7 4 -4 1 7 -2 11 0
27 5 35 8 12 11 12 28 -3 21 -19 43 -24 24 -5 -15 15 -16 32 -2 23 6 -3 10 -2
10 3 0 6 -7 13 -16 16 -9 4 -14 13 -10 21 10 27 -2 16 -32 -27z m33 2 c3 -5
-1 -10 -10 -10 -9 0 -13 5 -10 10 3 6 8 10 10 10 2 0 7 -4 10 -10z"/>
<path d="M5627 10714 c-8 -13 4 -29 28 -37 17 -6 18 -5 4 5 -9 7 -18 20 -21
28 -2 8 -7 10 -11 4z"/>
<path d="M5780 10615 c0 -8 2 -15 4 -15 2 0 6 7 10 15 3 8 1 15 -4 15 -6 0
-10 -7 -10 -15z"/>
<path d="M5765 10549 c-4 -6 -4 -13 -1 -16 3 -4 6 0 6 8 0 11 2 11 10 -1 8
-13 10 -12 10 3 0 19 -15 23 -25 6z"/>
<path d="M5335 10300 c-3 -5 -1 -10 4 -10 6 0 11 5 11 10 0 6 -2 10 -4 10 -3
0 -8 -4 -11 -10z"/>
<path d="M5292 10230 c-7 -11 -8 -20 -3 -20 9 0 24 30 18 36 -1 2 -8 -6 -15
-16z"/>
<path d="M5148 9945 c3 -19 8 -23 15 -16 8 8 7 16 -5 27 -14 14 -15 14 -10
-11z"/>
<path d="M5125 9940 c-3 -5 -1 -10 4 -10 6 0 11 5 11 10 0 6 -2 10 -4 10 -3 0
-8 -4 -11 -10z"/>
<path d="M5256 9873 c-6 -14 -5 -15 5 -6 7 7 10 15 7 18 -3 3 -9 -2 -12 -12z"/>
<path d="M5086 9863 c-6 -14 -5 -15 5 -6 7 7 10 15 7 18 -3 3 -9 -2 -12 -12z"/>
<path d="M4295 8020 c3 -5 8 -10 11 -10 2 0 4 5 4 10 0 6 -5 10 -11 10 -5 0
-7 -4 -4 -10z"/>
<path d="M8890 11840 c-9 -6 -10 -10 -3 -10 6 0 15 5 18 10 8 12 4 12 -15 0z"/>
<path d="M8816 11787 c3 -10 9 -15 12 -12 3 3 0 11 -7 18 -10 9 -11 8 -5 -6z"/>
<path d="M8850 11780 c0 -5 5 -10 11 -10 5 0 7 5 4 10 -3 6 -8 10 -11 10 -2 0
-4 -4 -4 -10z"/>
<path d="M8709 10803 c-13 -16 -12 -17 4 -4 16 13 21 21 13 21 -2 0 -10 -8
-17 -17z"/>
<path d="M8535 10800 c3 -5 8 -10 11 -10 2 0 4 5 4 10 0 6 -5 10 -11 10 -5 0
-7 -4 -4 -10z"/>
<path d="M8596 10795 c-3 -8 -1 -15 4 -15 6 0 10 7 10 15 0 8 -2 15 -4 15 -2
0 -6 -7 -10 -15z"/>
<path d="M8611 10768 l-23 -29 37 -32 c20 -18 49 -44 63 -59 14 -16 29 -28 34
-28 5 0 -3 12 -17 26 -17 17 -24 32 -20 45 4 11 2 19 -4 19 -6 0 -11 -4 -11
-10 0 -5 -5 -10 -11 -10 -6 0 -9 7 -6 14 4 10 1 13 -9 9 -8 -3 -14 1 -14 11 0
9 -4 16 -10 16 -5 0 -10 5 -10 11 0 5 4 8 9 5 5 -3 11 4 14 16 8 30 6 30 -22
-4z"/>
<path d="M8570 10760 c0 -5 5 -10 10 -10 6 0 10 5 10 10 0 6 -4 10 -10 10 -5
0 -10 -4 -10 -10z"/>
<path d="M8635 10751 c-7 -12 25 -30 43 -24 6 3 12 12 12 21 0 12 -3 13 -12 4
-15 -15 -32 -16 -23 -2 3 6 2 10 -4 10 -5 0 -12 -4 -16 -9z"/>
<path d="M8709 10708 c9 -12 10 -18 2 -18 -17 0 -13 -14 8 -27 16 -10 22 -9
33 5 12 15 11 16 -4 4 -17 -13 -35 -1 -24 17 3 5 -2 15 -12 22 -15 13 -16 12
-3 -3z"/>
<path d="M9215 10180 c-3 -5 -1 -10 4 -10 6 0 11 5 11 10 0 6 -2 10 -4 10 -3
0 -8 -4 -11 -10z"/>
<path d="M9180 10155 c7 -8 20 -14 29 -14 13 1 13 2 -1 6 -10 2 -18 9 -18 14
0 5 -5 9 -11 9 -8 0 -8 -5 1 -15z"/>
<path d="M9236 10101 c-3 -5 1 -11 9 -14 9 -4 12 -1 8 9 -6 16 -10 17 -17 5z"/>
<path d="M9300 10039 c0 -5 5 -7 10 -4 6 3 10 8 10 11 0 2 -4 4 -10 4 -5 0
-10 -5 -10 -11z"/>
<path d="M9320 10022 c0 -11 39 -47 44 -41 2 2 -7 14 -20 27 -13 12 -24 19
-24 14z"/>
<path d="M9637 9700 c10 -11 21 -20 25 -20 4 0 0 9 -9 20 -10 11 -21 20 -25
20 -4 0 0 -9 9 -20z"/>
<path d="M9850 9480 c0 -5 5 -10 11 -10 5 0 7 5 4 10 -3 6 -8 10 -11 10 -2 0
-4 -4 -4 -10z"/>
<path d="M9890 9450 c0 -5 5 -10 11 -10 5 0 7 5 4 10 -3 6 -8 10 -11 10 -2 0
-4 -4 -4 -10z"/>
<path d="M10030 9301 c0 -5 7 -11 14 -14 10 -4 13 -1 9 9 -6 15 -23 19 -23 5z"/>
<path d="M10085 9290 c3 -5 8 -10 11 -10 2 0 4 5 4 10 0 6 -5 10 -11 10 -5 0
-7 -4 -4 -10z"/>
<path d="M10091 9244 c0 -11 3 -14 6 -6 3 7 2 16 -1 19 -3 4 -6 -2 -5 -13z"/>
<path d="M10150 9244 c0 -8 5 -12 10 -9 6 4 8 11 5 16 -9 14 -15 11 -15 -7z"/>
<path d="M10117 9233 c-4 -3 -7 -11 -7 -17 0 -6 5 -5 12 2 6 6 9 14 7 17 -3 3
-9 2 -12 -2z"/>
<path d="M10175 9220 c-3 -5 -1 -10 4 -10 6 0 11 5 11 10 0 6 -2 10 -4 10 -3
0 -8 -4 -11 -10z"/>
<path d="M10148 9193 c12 -8 22 -20 22 -26 0 -8 38 -47 46 -47 9 0 -10 29 -22
34 -8 3 -14 10 -14 16 0 16 -26 40 -42 39 -7 0 -3 -7 10 -16z"/>
<path d="M10567 8772 c-2 -4 4 -15 14 -24 10 -10 20 -14 22 -10 2 4 -4 15 -14
24 -10 10 -20 14 -22 10z"/>
<path d="M10648 8738 c10 -12 10 -18 1 -23 -6 -4 -15 -1 -20 6 -4 7 -11 10
-15 6 -4 -3 14 -27 39 -52 25 -25 48 -41 51 -37 2 4 -9 17 -25 27 -31 21 -36
34 -19 51 8 8 5 15 -7 25 -16 13 -17 12 -5 -3z"/>
<path d="M10688 8683 c7 -3 16 -2 19 1 4 3 -2 6 -13 5 -11 0 -14 -3 -6 -6z"/>
<path d="M10725 8611 c-9 -15 69 -81 81 -68 3 3 -4 8 -15 12 -12 3 -21 14 -21
24 0 29 -32 52 -45 32z m35 -22 c0 -6 -4 -7 -10 -4 -5 3 -10 11 -10 16 0 6 5
7 10 4 6 -3 10 -11 10 -16z"/>
<path d="M10810 8519 c0 -5 5 -7 10 -4 6 3 10 8 10 11 0 2 -4 4 -10 4 -5 0
-10 -5 -10 -11z"/>
<path d="M10830 8500 c0 -5 5 -10 10 -10 6 0 10 5 10 10 0 6 -4 10 -10 10 -5
0 -10 -4 -10 -10z"/>
<path d="M10850 8476 c0 -2 7 -7 16 -10 8 -3 12 -2 9 4 -6 10 -25 14 -25 6z"/>
<path d="M11273 8138 c1 -8 -7 -12 -23 -11 -22 2 -23 1 -7 -8 10 -6 25 -8 33
-5 16 6 19 36 4 36 -5 0 -9 -6 -7 -12z"/>
<path d="M11308 8115 c-25 -34 -22 -43 3 -11 12 15 20 29 18 31 -2 1 -12 -7
-21 -20z"/>
<path d="M11260 8070 c6 -11 15 -18 21 -15 5 4 3 12 -5 21 -21 20 -28 17 -16
-6z"/>
<path d="M11397 8003 c-4 -3 -7 -11 -7 -17 0 -6 5 -5 12 2 6 6 9 14 7 17 -3 3
-9 2 -12 -2z"/>
<path d="M11434 7979 c-3 -6 -2 -15 3 -20 5 -5 9 -1 9 11 0 23 -2 24 -12 9z"/>
<path d="M11368 7974 c-2 -5 7 -21 21 -36 24 -25 28 -26 46 -11 19 15 19 15
-4 8 -20 -6 -23 -4 -18 9 6 14 1 18 -19 15 -4 0 -10 5 -14 11 -4 7 -9 8 -12 4z"/>
<path d="M11482 7846 c7 -8 15 -12 17 -11 5 6 -10 25 -20 25 -5 0 -4 -6 3 -14z"/>
<path d="M11831 7607 c2 -2 18 -11 34 -21 l30 -17 -24 20 c-13 12 -28 21 -34
21 -6 0 -8 -1 -6 -3z"/>
<path d="M12195 7590 c-3 -6 1 -7 9 -4 18 7 21 14 7 14 -6 0 -13 -4 -16 -10z"/>
<path d="M11846 7563 c-6 -14 -5 -15 5 -6 7 7 10 15 7 18 -3 3 -9 -2 -12 -12z"/>
<path d="M12183 7549 c-2 -23 3 -25 10 -4 4 8 3 16 -1 19 -4 3 -9 -4 -9 -15z"/>
<path d="M11807 7530 c3 -11 9 -17 15 -14 5 3 4 12 -3 20 -16 19 -18 18 -12
-6z"/>
<path d="M11895 7520 c3 -5 8 -10 11 -10 2 0 4 5 4 10 0 6 -5 10 -11 10 -5 0
-7 -4 -4 -10z"/>
<path d="M11843 7506 c4 -10 7 -22 7 -27 0 -5 8 -9 17 -9 9 0 14 -3 10 -6 -6
-6 55 -64 68 -64 5 0 -2 8 -13 19 -12 10 -19 21 -15 25 3 3 -1 6 -9 6 -19 0
-30 24 -21 48 5 14 3 13 -10 -3 -14 -17 -16 -18 -17 -3 0 9 -5 20 -12 24 -8 5
-9 2 -5 -10z"/>
<path d="M11912 7484 c-7 -8 -8 -14 -3 -14 10 0 25 19 20 25 -2 1 -10 -3 -17
-11z"/>
<path d="M11944 7472 c3 -5 0 -13 -6 -15 -9 -4 -10 -6 -1 -6 17 -1 25 16 12
25 -7 4 -9 3 -5 -4z"/>
<path d="M11970 7456 c0 -2 7 -7 16 -10 8 -3 12 -2 9 4 -6 10 -25 14 -25 6z"/>
<path d="M11976 7407 c3 -10 9 -15 12 -12 3 3 0 11 -7 18 -10 9 -11 8 -5 -6z"/>
<path d="M12065 7370 c-3 -5 -1 -10 4 -10 6 0 11 5 11 10 0 6 -2 10 -4 10 -3
0 -8 -4 -11 -10z"/>
<path d="M12030 7315 c0 -8 4 -15 10 -15 5 0 7 7 4 15 -4 8 -8 15 -10 15 -2 0
-4 -7 -4 -15z"/>
<path d="M12058 7283 c7 -3 16 -2 19 1 4 3 -2 6 -13 5 -11 0 -14 -3 -6 -6z"/>
<path d="M12162 7176 c7 -8 15 -12 17 -11 5 6 -10 25 -20 25 -5 0 -4 -6 3 -14z"/>
<path d="M12200 7130 c8 -5 20 -10 25 -10 6 0 3 5 -5 10 -8 5 -19 10 -25 10
-5 0 -3 -5 5 -10z"/>
<path d="M12700 6981 c0 -6 4 -13 10 -16 6 -3 7 1 4 9 -7 18 -14 21 -14 7z"/>
<path d="M12506 6922 c-2 -4 4 -8 14 -8 10 0 16 4 14 8 -3 4 -9 8 -14 8 -5 0
-11 -4 -14 -8z"/>
<path d="M12870 6910 c0 -5 7 -7 15 -4 8 4 15 8 15 10 0 2 -7 4 -15 4 -8 0
-15 -4 -15 -10z"/>
<path d="M12470 6866 c0 -2 7 -7 16 -10 8 -3 12 -2 9 4 -6 10 -25 14 -25 6z"/>
<path d="M12828 6863 c7 -3 16 -2 19 1 4 3 -2 6 -13 5 -11 0 -14 -3 -6 -6z"/>
<path d="M12550 6845 c-7 -9 -8 -15 -2 -15 5 0 12 7 16 15 3 8 4 15 2 15 -2 0
-9 -7 -16 -15z"/>
<path d="M12498 6833 c7 -3 16 -2 19 1 4 3 -2 6 -13 5 -11 0 -14 -3 -6 -6z"/>
<path d="M12520 6808 c0 -10 31 -10 48 0 8 6 2 9 -18 9 -16 0 -30 -4 -30 -9z"/>
<path d="M12601 6797 c-13 -21 -12 -21 5 -5 10 10 16 20 13 22 -3 3 -11 -5
-18 -17z"/>
<path d="M12590 6739 c0 -5 5 -7 10 -4 6 3 10 8 10 11 0 2 -4 4 -10 4 -5 0
-10 -5 -10 -11z"/>
<path d="M12629 6737 c-14 -11 -13 -14 8 -35 13 -12 23 -19 23 -14 0 5 -7 15
-15 22 -12 10 -13 16 -4 26 14 17 9 17 -12 1z"/>
<path d="M12709 6683 c-13 -16 -12 -17 4 -4 9 7 17 15 17 17 0 8 -8 3 -21 -13z"/>
<path d="M13210 6580 c0 -6 7 -10 15 -10 8 0 15 2 15 4 0 2 -7 6 -15 10 -8 3
-15 1 -15 -4z"/>
<path d="M13259 6581 c11 -7 6 -12 -20 -19 -29 -9 -30 -10 -9 -11 14 0 31 3
39 8 15 10 7 31 -12 31 -8 0 -7 -4 2 -9z"/>
<path d="M13290 6556 c0 -2 8 -10 18 -17 15 -13 16 -12 3 4 -13 16 -21 21 -21
13z"/>
<path d="M13198 6493 c7 -3 16 -2 19 1 4 3 -2 6 -13 5 -11 0 -14 -3 -6 -6z"/>
<path d="M13265 6470 c-3 -6 1 -7 9 -4 18 7 21 14 7 14 -6 0 -13 -4 -16 -10z"/>
<path d="M13338 6453 c7 -3 16 -2 19 1 4 3 -2 6 -13 5 -11 0 -14 -3 -6 -6z"/>
<path d="M13035 6440 c-3 -5 -1 -10 4 -10 6 0 11 5 11 10 0 6 -2 10 -4 10 -3
0 -8 -4 -11 -10z"/>
<path d="M13121 6440 c0 -8 4 -22 9 -30 12 -18 12 -2 0 25 -6 13 -9 15 -9 5z"/>
<path d="M13188 6443 c7 -3 16 -2 19 1 4 3 -2 6 -13 5 -11 0 -14 -3 -6 -6z"/>
<path d="M13211 6429 c-11 -19 -11 -21 4 -15 9 3 19 6 21 6 3 0 2 5 -1 10 -3
6 1 10 10 10 9 0 13 -4 10 -10 -3 -6 1 -7 10 -3 13 5 14 7 3 14 -22 15 -43 10
-57 -12z"/>
<path d="M13022 6406 c7 -8 15 -12 17 -11 5 6 -10 25 -20 25 -5 0 -4 -6 3 -14z"/>
<path d="M12960 6390 c-11 -7 -11 -10 -2 -10 7 0 10 -4 7 -10 -3 -5 -2 -10 4
-10 5 0 9 9 8 20 -1 11 -1 20 -2 20 0 0 -7 -5 -15 -10z"/>
<path d="M13208 6393 c7 -3 16 -2 19 1 4 3 -2 6 -13 5 -11 0 -14 -3 -6 -6z"/>
<path d="M13223 6373 c9 -2 23 -2 30 0 6 3 -1 5 -18 5 -16 0 -22 -2 -12 -5z"/>
<path d="M13150 6349 c0 -5 5 -7 10 -4 6 3 10 8 10 11 0 2 -4 4 -10 4 -5 0
-10 -5 -10 -11z"/>
<path d="M13238 6353 c12 -2 30 -2 40 0 9 3 -1 5 -23 4 -22 0 -30 -2 -17 -4z"/>
<path d="M13248 6323 c7 -3 16 -2 19 1 4 3 -2 6 -13 5 -11 0 -14 -3 -6 -6z"/>
<path d="M13150 6300 c0 -4 7 -7 15 -6 23 3 26 12 5 13 -11 1 -20 -2 -20 -7z"/>
<path d="M13157 6229 c7 -7 15 -10 18 -7 3 3 -2 9 -12 12 -14 6 -15 5 -6 -5z"/>
<path d="M13118 6223 c6 -2 12 -11 12 -19 0 -8 6 -11 15 -8 14 6 13 8 -2 20
-10 7 -22 13 -28 13 -5 0 -4 -3 3 -6z"/>
<path d="M13164 6175 c8 -8 18 -15 22 -15 3 0 1 7 -6 15 -7 8 -17 15 -22 15
-5 0 -3 -7 6 -15z"/>
<path d="M13198 6143 c7 -3 16 -2 19 1 4 3 -2 6 -13 5 -11 0 -14 -3 -6 -6z"/>
<path d="M13690 6046 c0 -2 7 -7 16 -10 8 -3 12 -2 9 4 -6 10 -25 14 -25 6z"/>
<path d="M13730 6016 c0 -2 7 -7 16 -10 8 -3 12 -2 9 4 -6 10 -25 14 -25 6z"/>
<path d="M13778 5983 c7 -3 16 -2 19 1 4 3 -2 6 -13 5 -11 0 -14 -3 -6 -6z"/>
<path d="M13847 5949 c7 -7 15 -10 18 -7 3 3 -2 9 -12 12 -14 6 -15 5 -6 -5z"/>
<path d="M13698 5903 c7 -3 16 -2 19 1 4 3 -2 6 -13 5 -11 0 -14 -3 -6 -6z"/>
<path d="M13446 5892 c-3 -5 1 -9 9 -9 8 0 12 4 9 9 -3 4 -7 8 -9 8 -2 0 -6
-4 -9 -8z"/>
<path d="M13527 5878 c2 -5 10 -8 18 -8 8 0 16 3 18 8 3 4 -5 7 -18 7 -13 0
-21 -3 -18 -7z"/>
<path d="M13634 5882 c-9 -5 -8 -10 1 -19 11 -10 13 -9 12 7 -1 11 -1 20 -2
20 0 0 -5 -4 -11 -8z"/>
<path d="M13673 5883 c9 -2 25 -2 35 0 9 3 1 5 -18 5 -19 0 -27 -2 -17 -5z"/>
<path d="M13738 5883 c7 -3 16 -2 19 1 4 3 -2 6 -13 5 -11 0 -14 -3 -6 -6z"/>
<path d="M13570 5860 c0 -5 5 -10 11 -10 5 0 7 5 4 10 -3 6 -8 10 -11 10 -2 0
-4 -4 -4 -10z"/>
<path d="M13703 5863 c9 -2 23 -2 30 0 6 3 -1 5 -18 5 -16 0 -22 -2 -12 -5z"/>
<path d="M13530 5849 c0 -5 5 -7 10 -4 6 3 10 8 10 11 0 2 -4 4 -10 4 -5 0
-10 -5 -10 -11z"/>
<path d="M13498 5843 c7 -3 16 -2 19 1 4 3 -2 6 -13 5 -11 0 -14 -3 -6 -6z"/>
<path d="M13524 5815 c8 -8 17 -15 20 -15 3 0 3 7 0 15 -4 8 -13 15 -21 15
-12 0 -12 -2 1 -15z"/>
<path d="M13648 5778 c5 -5 16 -8 23 -6 8 3 3 7 -10 11 -17 4 -21 3 -13 -5z"/>
<path d="M13770 5781 c0 -5 7 -12 16 -15 14 -5 15 -4 4 9 -14 17 -20 19 -20 6z"/>
<path d="M13610 5769 c0 -5 5 -7 10 -4 6 3 10 8 10 11 0 2 -4 4 -10 4 -5 0
-10 -5 -10 -11z"/>
<path d="M13578 5763 c7 -3 16 -2 19 1 4 3 -2 6 -13 5 -11 0 -14 -3 -6 -6z"/>
<path d="M13634 5745 c3 -8 1 -15 -4 -15 -6 0 -10 5 -10 10 0 6 -7 10 -15 10
-9 0 -12 -6 -9 -15 4 -8 10 -15 15 -15 12 0 79 -69 79 -81 0 -6 5 -7 10 -4 6
4 7 11 4 17 -4 6 0 15 7 20 10 7 8 8 -8 3 -20 -6 -22 -3 -20 34 2 23 0 41 -3
42 -3 0 -16 2 -29 5 -18 3 -22 1 -17 -11z m27 -23 c-8 -3 -6 -9 6 -18 10 -7
13 -14 7 -14 -6 0 -17 7 -24 15 -10 12 -10 18 1 31 10 12 14 13 18 3 2 -7 -1
-15 -8 -17z"/>
<path d="M13718 5623 c7 -3 16 -2 19 1 4 3 -2 6 -13 5 -11 0 -14 -3 -6 -6z"/>
<path d="M13742 5596 c7 -8 15 -12 17 -11 5 6 -10 25 -20 25 -5 0 -4 -6 3 -14z"/>
<path d="M13847 5539 c7 -7 15 -10 18 -7 3 3 -2 9 -12 12 -14 6 -15 5 -6 -5z"/>
<path d="M13820 5515 c7 -8 17 -15 22 -15 5 0 3 7 -6 15 -8 8 -18 15 -22 15
-3 0 -1 -7 6 -15z"/>
<path d="M14175 5220 c-3 -5 -1 -10 4 -10 6 0 11 5 11 10 0 6 -2 10 -4 10 -3
0 -8 -4 -11 -10z"/>
<path d="M14290 5219 c0 -5 5 -7 10 -4 6 3 10 8 10 11 0 2 -4 4 -10 4 -5 0
-10 -5 -10 -11z"/>
<path d="M14210 5209 c0 -5 5 -7 10 -4 6 3 10 8 10 11 0 2 -4 4 -10 4 -5 0
-10 -5 -10 -11z"/>
<path d="M14150 5180 c23 -32 36 -40 27 -15 -4 8 -2 17 3 20 6 4 10 1 10 -5 0
-6 5 -8 11 -4 16 10 -12 25 -33 18 -10 -3 -18 -1 -18 5 0 6 -5 11 -11 11 -6 0
-1 -13 11 -30z"/>
<path d="M14221 5164 c0 -11 3 -14 6 -6 3 7 2 16 -1 19 -3 4 -6 -2 -5 -13z"/>
<path d="M15537 5151 c-4 -17 -3 -21 5 -13 5 5 8 16 6 23 -3 8 -7 3 -11 -10z"/>
<path d="M14200 5135 c7 -8 20 -14 29 -14 13 1 13 2 -1 6 -10 2 -18 9 -18 14
0 5 -5 9 -11 9 -8 0 -8 -5 1 -15z"/>
<path d="M15542 5110 c0 -8 4 -26 8 -40 6 -20 8 -21 8 -5 0 11 -3 29 -8 40 -5
12 -8 14 -8 5z"/>
<path d="M14270 5067 c0 -1 16 -17 35 -36 19 -18 32 -26 29 -17 -4 12 0 16 15
16 18 0 20 2 9 14 -11 11 -14 11 -23 -1 -9 -12 -14 -11 -32 7 -20 18 -33 25
-33 17z"/>
<path d="M14460 5059 c0 -5 5 -7 10 -4 6 3 10 8 10 11 0 2 -4 4 -10 4 -5 0
-10 -5 -10 -11z"/>
<path d="M14379 5028 c-7 -13 -17 -26 -23 -30 -6 -4 -7 -10 -4 -14 9 -9 34 17
42 44 9 29 0 28 -15 0z"/>
<path d="M14410 5036 c0 -9 30 -14 35 -6 4 6 -3 10 -14 10 -12 0 -21 -2 -21
-4z"/>
<path d="M14390 4986 c0 -9 30 -14 35 -6 4 6 -3 10 -14 10 -12 0 -21 -2 -21
-4z"/>
<path d="M14426 4961 c-17 -6 -17 -8 -4 -14 10 -3 19 0 22 9 3 8 4 14 3 13 -1
0 -11 -4 -21 -8z"/>
<path d="M14468 4963 c7 -3 16 -2 19 1 4 3 -2 6 -13 5 -11 0 -14 -3 -6 -6z"/>
<path d="M14410 4929 c0 -5 4 -9 8 -9 5 0 13 -10 19 -22 9 -21 10 -21 15 -2 4
14 -2 23 -18 31 -13 6 -24 7 -24 2z"/>
<path d="M14477 4933 c-10 -9 -9 -33 1 -33 4 0 8 9 8 20 0 23 0 22 -9 13z"/>
<path d="M14950 4919 c0 -5 9 -9 20 -9 11 0 20 2 20 4 0 2 -9 6 -20 9 -11 3
-20 1 -20 -4z"/>
<path d="M15441 4904 c0 -11 3 -14 6 -6 3 7 2 16 -1 19 -3 4 -6 -2 -5 -13z"/>
<path d="M14892 4904 c9 -3 19 -13 22 -22 3 -12 4 -12 3 3 -1 12 -10 21 -22
22 -15 1 -15 0 -3 -3z"/>
<path d="M15413 4891 c0 -11 5 -18 9 -15 4 3 5 11 1 19 -7 21 -12 19 -10 -4z"/>
<path d="M14465 4881 c-3 -5 -2 -12 3 -15 5 -3 9 1 9 9 0 17 -3 19 -12 6z"/>
<path d="M14848 4883 c7 -3 16 -2 19 1 4 3 -2 6 -13 5 -11 0 -14 -3 -6 -6z"/>
<path d="M15063 4883 c9 -2 23 -2 30 0 6 3 -1 5 -18 5 -16 0 -22 -2 -12 -5z"/>
<path d="M15378 4883 c7 -3 16 -2 19 1 4 3 -2 6 -13 5 -11 0 -14 -3 -6 -6z"/>
<path d="M14930 4870 c0 -5 5 -10 11 -10 5 0 7 5 4 10 -3 6 -8 10 -11 10 -2 0
-4 -4 -4 -10z"/>
<path d="M14910 4849 c0 -5 9 -9 20 -9 11 0 20 2 20 4 0 2 -9 6 -20 9 -11 3
-20 1 -20 -4z"/>
<path d="M14800 4838 c0 -9 7 -19 16 -22 15 -6 15 -4 3 11 -7 10 -15 20 -16
22 -2 2 -3 -3 -3 -11z"/>
<path d="M14961 4833 c0 -13 2 -14 6 -4 5 11 7 11 14 0 7 -11 9 -10 9 4 0 9
-7 17 -15 17 -8 0 -15 -8 -14 -17z"/>
<path d="M15188 4843 c7 -3 16 -2 19 1 4 3 -2 6 -13 5 -11 0 -14 -3 -6 -6z"/>
<path d="M15297 4833 c-8 -15 8 -38 28 -40 l20 -2 -20 15 c-11 9 -19 20 -17
25 2 11 -5 12 -11 2z"/>
<path d="M14992 4810 c-17 -27 -15 -35 4 -16 8 9 14 21 12 26 -2 6 -9 1 -16
-10z"/>
<path d="M15130 4820 c-9 -6 -10 -10 -3 -10 6 0 15 5 18 10 8 12 4 12 -15 0z"/>
<path d="M15094 4787 c-4 -7 -3 -8 1 -4 5 4 15 -3 21 -15 l13 -23 -2 22 c-1
26 -23 38 -33 20z"/>
<path d="M15145 4790 c3 -5 8 -10 11 -10 2 0 4 5 4 10 0 6 -5 10 -11 10 -5 0
-7 -4 -4 -10z"/>
<path d="M15210 4790 c0 -5 5 -10 11 -10 5 0 7 5 4 10 -3 6 -8 10 -11 10 -2 0
-4 -4 -4 -10z"/>
<path d="M15244 4750 c2 -14 5 -28 5 -32 1 -5 6 -8 12 -8 6 0 8 9 4 23 -11 33
-26 46 -21 17z"/>
<path d="M15270 4760 c0 -5 5 -10 11 -10 5 0 7 5 4 10 -3 6 -8 10 -11 10 -2 0
-4 -4 -4 -10z"/>
<path d="M14595 4750 c-3 -5 -1 -10 4 -10 6 0 11 5 11 10 0 6 -2 10 -4 10 -3
0 -8 -4 -11 -10z"/>
<path d="M14670 4756 c0 -2 7 -6 15 -10 8 -3 15 -1 15 4 0 6 -7 10 -15 10 -8
0 -15 -2 -15 -4z"/>
<path d="M14781 4743 c-1 -12 -9 -24 -18 -26 -14 -4 -13 -5 4 -6 27 -1 33 8
22 34 -7 19 -8 19 -8 -2z"/>
<path d="M15012 4751 c-11 -7 -11 -9 0 -14 9 -3 15 1 15 9 0 8 -1 14 -1 14 -1
0 -7 -4 -14 -9z"/>
<path d="M14732 4730 c0 -14 2 -19 5 -12 2 6 2 18 0 25 -3 6 -5 1 -5 -13z"/>
<path d="M14798 4673 c7 -3 16 -2 19 1 4 3 -2 6 -13 5 -11 0 -14 -3 -6 -6z"/>
<path d="M15102 4606 c7 -8 15 -12 17 -11 5 6 -10 25 -20 25 -5 0 -4 -6 3 -14z"/>
<path d="M14780 4600 c-23 -7 -23 -8 -3 -9 12 -1 25 4 28 9 3 6 5 10 3 9 -2
-1 -14 -5 -28 -9z"/>
<path d="M14750 4576 c0 -2 7 -7 16 -10 8 -3 12 -2 9 4 -6 10 -25 14 -25 6z"/>
<path d="M12247 10895 c-4 -8 -3 -16 1 -19 4 -3 9 4 9 15 2 23 -3 25 -10 4z"/>
<path d="M13592 10005 c-10 -8 -21 -13 -23 -10 -7 7 -4 -60 4 -82 9 -24 13
-26 67 -27 35 -1 35 -1 37 45 2 34 -2 50 -15 61 -27 24 -48 28 -70 13z"/>
<path d="M13852 10004 c-37 -26 -28 -44 23 -44 38 0 45 3 45 20 0 10 -9 24
-19 30 -25 13 -22 13 -49 -6z"/>
<path d="M4790 9210 c0 -5 5 -10 11 -10 5 0 7 5 4 10 -3 6 -8 10 -11 10 -2 0
-4 -4 -4 -10z"/>
<path d="M4785 9180 c3 -5 8 -10 11 -10 2 0 4 5 4 10 0 6 -5 10 -11 10 -5 0
-7 -4 -4 -10z"/>
<path d="M15009 15838 l-4 -48 82 0 c46 0 83 3 83 8 0 4 -17 7 -37 8 -103 3
-113 4 -113 19 0 8 6 15 13 15 8 0 9 3 1 8 -6 4 -13 14 -16 22 -3 8 -7 -6 -9
-32z"/>
<path d="M15188 15793 c6 -2 18 -2 25 0 6 3 1 5 -13 5 -14 0 -19 -2 -12 -5z"/>
<path d="M13960 15670 c0 -27 5 -50 10 -50 6 0 9 3 9 8 -1 4 -1 23 0 43 l1 35
61 2 c90 2 86 12 -4 12 l-77 0 0 -50z"/>
<path d="M14353 15713 c27 -3 37 -8 33 -18 -2 -7 1 -18 8 -24 10 -8 13 -5 11
17 -1 25 -4 27 -45 28 -41 1 -42 1 -7 -3z"/>
<path d="M13960 15600 c0 -5 5 -10 11 -10 5 0 7 5 4 10 -3 6 -8 10 -11 10 -2
0 -4 -4 -4 -10z"/>
<path d="M14167 15569 c7 -7 15 -10 18 -7 3 3 -2 9 -12 12 -14 6 -15 5 -6 -5z"/>
<path d="M14390 15377 c0 -13 -5 -28 -12 -35 -9 -9 -9 -12 1 -12 7 0 10 -4 6
-10 -3 -5 -12 -7 -19 -4 -8 3 -17 1 -21 -5 -3 -6 0 -9 8 -5 8 3 18 0 22 -6 3
-6 3 -10 -2 -9 -4 1 -19 0 -33 -1 -21 -2 -19 -4 10 -9 19 -4 41 -5 48 -3 15 5
17 122 2 122 -5 0 -10 -10 -10 -23z"/>
<path d="M13960 15335 l0 -55 55 0 c41 0 55 4 55 14 0 9 -7 12 -22 9 -19 -4
-20 -3 -8 6 11 8 11 11 2 11 -7 0 -15 -7 -18 -15 -4 -8 -10 -15 -16 -15 -5 0
-6 4 -3 10 3 6 -1 7 -9 4 -13 -5 -16 2 -17 32 -1 22 -1 42 0 47 0 4 -3 7 -9 7
-5 0 -10 -25 -10 -55z"/>
<path d="M15004 15301 c-2 -2 -4 -105 -4 -228 l0 -223 225 0 225 0 0 228 0
227 -221 0 c-121 0 -222 -2 -225 -4z"/>
<path d="M15820 15155 l0 -155 155 0 155 0 0 155 0 155 -155 0 -155 0 0 -155z"/>
<path d="M12581 14753 c0 -21 3 -32 6 -25 2 6 14 12 26 12 21 1 21 1 -3 15
l-25 14 28 1 c15 0 27 5 27 10 0 6 -13 10 -30 10 -28 0 -30 -2 -29 -37z"/>
<path d="M12743 14784 c4 -4 21 -8 39 -9 18 -2 47 -4 63 -5 l30 -3 -35 -7 -35
-7 30 -3 c17 -1 46 -3 65 -5 19 -2 43 -3 53 -4 10 -1 17 -9 17 -22 0 -12 4
-17 11 -14 6 4 8 13 5 21 -3 8 -1 14 4 14 6 0 11 -24 11 -52 3 -146 19 -154
19 -10 l0 112 -142 0 c-78 0 -138 -3 -135 -6z"/>
<path d="M12970 14659 c0 -5 5 -7 10 -4 6 3 10 8 10 11 0 2 -4 4 -10 4 -5 0
-10 -5 -10 -11z"/>
<path d="M12587 14403 c-14 -14 -7 -32 10 -26 11 4 13 8 5 11 -7 2 -10 8 -6
13 6 10 0 12 -9 2z"/>
<path d="M12583 14357 c-2 -4 57 -7 132 -6 75 0 134 4 130 7 -9 10 -256 9
-262 -1z"/>
<path d="M13978 14332 c-17 -3 -18 -22 -18 -228 l0 -224 225 0 225 0 -2 228
-3 227 -205 0 c-113 1 -213 -1 -222 -3z"/>
<path d="M13241 14326 c2 -3 35 -6 72 -8 38 -1 71 -6 73 -10 3 -5 -3 -8 -12
-8 -43 0 12 -17 66 -20 14 -1 19 -4 13 -7 -7 -2 -12 -14 -12 -26 1 -17 2 -18
6 -4 2 9 8 17 13 17 5 0 11 -8 13 -17 3 -10 5 6 6 35 l1 52 -122 0 c-67 0
-119 -2 -117 -4z m229 -22 c0 -6 -17 -11 -39 -10 -21 1 -37 5 -35 11 6 14 74
13 74 -1z"/>
<path d="M13060 14213 c0 -11 -6 -25 -12 -32 -11 -11 -10 -12 2 -6 12 6 13 5
3 -6 -15 -16 -17 -79 -3 -79 6 0 10 -5 10 -11 0 -5 -4 -7 -10 -4 -5 3 -10 1
-10 -4 0 -6 6 -11 14 -11 9 0 13 -7 11 -20 -2 -11 0 -20 5 -20 11 0 11 198 -1
206 -5 3 -9 -3 -9 -13z"/>
<path d="M13472 14195 c0 -16 2 -22 5 -12 2 9 2 23 0 30 -3 6 -5 -1 -5 -18z"/>
<path d="M12521 14174 c0 -11 3 -14 6 -6 3 7 2 16 -1 19 -3 4 -6 -2 -5 -13z"/>
<path d="M12521 14044 c0 -11 3 -14 6 -6 3 7 2 16 -1 19 -3 4 -6 -2 -5 -13z"/>
<path d="M13060 13950 c0 -5 5 -10 10 -10 6 0 10 5 10 10 0 6 -4 10 -10 10 -5
0 -10 -4 -10 -10z"/>
<path d="M13040 13926 c0 -2 9 -6 20 -9 11 -3 20 -1 20 4 0 5 -9 9 -20 9 -11
0 -20 -2 -20 -4z"/>
<path d="M12385 13910 c3 -5 16 -10 27 -10 26 0 16 13 -13 17 -12 2 -18 -1
-14 -7z"/>
<path d="M13053 13903 c-23 -8 -13 -18 17 -17 17 0 31 3 33 5 1 2 0 3 -2 2 -2
-1 -11 1 -20 6 -9 5 -22 6 -28 4z"/>
<path d="M13490 13645 l-1 -225 231 0 230 0 0 225 0 225 -229 0 -230 0 -1
-225z"/>
<path d="M11628 13800 c-7 -24 -3 -38 8 -28 3 4 4 17 2 30 l-3 23 -7 -25z"/>
<path d="M11620 13735 c0 -14 4 -25 8 -25 4 0 8 11 8 25 0 14 -4 25 -8 25 -4
0 -8 -11 -8 -25z"/>
<path d="M11620 13670 c0 -5 5 -10 11 -10 5 0 7 5 4 10 -3 6 -8 10 -11 10 -2
0 -4 -4 -4 -10z"/>
<path d="M11623 13550 c-1 -11 2 -20 7 -20 4 0 7 7 6 15 -3 23 -12 26 -13 5z"/>
<path d="M9549 13401 c19 -12 221 -12 221 0 0 5 -50 9 -117 9 -73 0 -113 -4
-104 -9z"/>
<path d="M9780 13400 c0 -5 5 -10 11 -10 5 0 7 5 4 10 -3 6 -8 10 -11 10 -2 0
-4 -4 -4 -10z"/>
<path d="M11818 13403 c28 -2 76 -2 105 0 28 2 5 3 -53 3 -58 0 -81 -1 -52 -3z"/>
<path d="M14422 13310 c0 -58 4 -98 9 -94 5 3 9 43 9 90 0 46 3 85 8 85 4 1
24 2 44 3 63 3 55 16 -10 16 l-61 0 1 -100z"/>
<path d="M14770 13400 c8 -5 29 -10 47 -10 17 0 35 -4 38 -10 3 -5 -1 -10 -10
-10 -11 0 -14 -6 -9 -25 4 -17 2 -25 -6 -25 -8 0 -4 -8 8 -18 16 -14 22 -33
25 -83 2 -35 4 -7 5 64 l2 127 -57 0 c-41 0 -54 -3 -43 -10z m87 -62 c-3 -8
-6 -5 -6 6 -1 11 2 17 5 13 3 -3 4 -12 1 -19z"/>
<path d="M16045 13400 c3 -5 12 -7 20 -3 21 7 19 13 -6 13 -11 0 -18 -4 -14
-10z"/>
<path d="M16364 13403 c4 -4 28 -8 54 -8 l46 0 4 -45 c5 -70 9 -71 13 -2 l4
62 -64 0 c-35 0 -61 -3 -57 -7z"/>
<path d="M9671 13363 c-1 -26 10 -35 29 -22 13 7 12 9 -2 9 -9 0 -19 8 -21 18
-4 13 -5 12 -6 -5z"/>
<path d="M9690 13370 c0 -6 7 -10 15 -10 8 0 15 -6 15 -14 0 -8 10 -13 25 -13
14 0 25 3 25 8 0 5 -6 9 -14 9 -8 0 -16 5 -18 12 -5 14 -48 22 -48 8z"/>
<path d="M14453 13342 c0 -12 5 -22 9 -22 11 0 10 12 -2 30 -7 12 -9 10 -7 -8z"/>
<path d="M9946 13297 c3 -10 9 -15 12 -12 3 3 0 11 -7 18 -10 9 -11 8 -5 -6z"/>
<path d="M16472 13260 c0 -14 2 -19 5 -12 2 6 2 18 0 25 -3 6 -5 1 -5 -13z"/>
<path d="M9947 13236 c-4 -10 -1 -13 9 -9 7 3 14 9 14 14 0 14 -17 10 -23 -5z"/>
<path d="M12538 13223 c7 -3 16 -2 19 1 4 3 -2 6 -13 5 -11 0 -14 -3 -6 -6z"/>
<path d="M16471 13214 c0 -11 3 -14 6 -6 3 7 2 16 -1 19 -3 4 -6 -2 -5 -13z"/>
<path d="M9952 13150 c1 -22 6 -40 11 -40 5 0 7 6 4 13 -2 6 0 20 5 31 7 13 7
16 -1 12 -7 -5 -9 -1 -5 8 3 9 1 16 -5 16 -7 0 -11 -15 -9 -40z"/>
<path d="M16470 13054 c0 -72 -2 -85 -15 -80 -8 3 -15 1 -15 -4 0 -6 9 -10 20
-10 19 0 20 7 20 90 0 50 -2 90 -5 90 -3 0 -5 -39 -5 -86z"/>
<path d="M9351 13028 l3 -63 225 -5 c180 -4 225 -8 223 -18 -1 -8 2 -11 8 -7
6 3 8 10 5 15 -3 4 1 11 7 13 7 3 3 6 -9 6 -16 1 -23 7 -23 21 0 11 -5 20 -11
20 -6 0 -8 -9 -4 -20 7 -21 -9 -28 -21 -8 -5 7 -3 8 6 3 9 -5 11 -4 6 3 -10
17 -26 15 -26 -3 0 -18 -20 -16 -37 5 -12 13 -12 13 -8 0 5 -13 -9 -16 -95
-17 -58 -1 -100 3 -100 9 0 5 -6 6 -12 1 -19 -12 -99 -10 -95 2 2 5 12 9 22 7
11 -2 15 2 12 10 -2 7 -1 20 3 28 5 9 2 21 -7 29 -13 12 -14 10 -11 -14 2 -16
-2 -30 -10 -32 -7 -3 -10 1 -6 11 4 11 1 16 -10 16 -10 0 -16 9 -16 25 0 14
-5 25 -11 25 -6 0 -9 -23 -8 -62z m26 -50 c-3 -8 -6 -5 -6 6 -1 11 2 17 5 13
3 -3 4 -12 1 -19z"/>
<path d="M16041 13008 l-1 -48 38 1 c32 1 34 2 12 8 -14 4 -24 13 -22 19 1 7
-2 12 -7 12 -5 0 -12 12 -14 28 -2 16 -5 9 -6 -20z"/>
<path d="M12535 13030 c-3 -5 -1 -10 4 -10 6 0 11 5 11 10 0 6 -2 10 -4 10 -3
0 -8 -4 -11 -10z"/>
<path d="M14655 13030 c3 -5 8 -10 11 -10 2 0 4 5 4 10 0 6 -5 10 -11 10 -5 0
-7 -4 -4 -10z"/>
<path d="M14457 13017 c-3 -9 -4 -24 -1 -32 4 -8 1 -15 -5 -15 -6 0 -11 10
-12 23 0 21 -1 21 -9 2 -5 -11 -9 -23 -9 -27 -1 -5 97 -7 217 -6 l217 3 -193
2 c-148 3 -193 6 -189 16 2 6 1 21 -3 31 -6 17 -7 18 -13 3z"/>
<path d="M14620 13018 c0 -10 -4 -18 -10 -18 -5 0 -10 5 -10 10 0 6 -4 10 -10
10 -5 0 -7 -7 -4 -15 4 -8 17 -15 30 -15 26 0 29 7 14 30 -8 13 -10 12 -10 -2z"/>
<path d="M14690 13010 c0 -7 -7 -10 -15 -7 -8 4 -17 2 -20 -2 -2 -5 9 -11 26
-13 35 -5 45 4 24 22 -12 10 -15 10 -15 0z"/>
<path d="M16441 13004 c0 -11 3 -14 6 -6 3 7 2 16 -1 19 -3 4 -6 -2 -5 -13z"/>
<path d="M12541 12994 c0 -11 3 -14 6 -6 3 7 2 16 -1 19 -3 4 -6 -2 -5 -13z"/>
<path d="M14548 12993 c7 -3 16 -2 19 1 4 3 -2 6 -13 5 -11 0 -14 -3 -6 -6z"/>
<path d="M16408 12963 c7 -3 16 -2 19 1 4 3 -2 6 -13 5 -11 0 -14 -3 -6 -6z"/>
<path d="M12940 12951 l-95 -7 75 -3 c41 -2 80 -3 86 -2 19 2 25 -181 18 -549
-3 -190 -7 -349 -8 -355 -2 -7 157 -10 465 -10 l469 0 0 238 c0 160 3 237 11
237 5 0 7 5 4 10 -4 6 -6 64 -5 128 1 64 2 137 2 162 0 25 5 53 10 63 6 12 5
23 -3 33 -10 12 -5 14 27 15 30 2 33 3 12 6 -51 8 -29 20 39 22 139 5 69 11
-118 11 -107 0 -351 2 -544 4 -192 2 -393 1 -445 -3z m732 -159 c35 -21 45
-49 52 -146 4 -74 7 -81 35 -103 23 -19 30 -31 27 -52 -4 -36 -13 -51 -31 -51
-24 0 -35 -35 -35 -110 0 -39 -5 -81 -12 -93 -24 -47 -71 -72 -119 -65 -21 3
-24 9 -24 43 0 32 4 40 20 43 33 6 38 17 42 104 4 64 9 88 25 104 19 21 19 22
-1 55 -16 26 -21 51 -21 106 0 76 -13 103 -51 103 -15 0 -19 7 -19 39 0 23 5
41 13 44 20 7 70 -4 99 -21z m-244 -24 c3 -32 0 -38 -17 -38 -38 0 -51 -26
-51 -103 0 -55 -5 -80 -20 -105 l-20 -33 20 -26 c15 -20 20 -41 20 -92 0 -91
7 -109 41 -116 26 -6 29 -11 29 -46 l0 -39 -46 0 c-39 0 -51 5 -80 34 -33 33
-34 36 -34 120 0 90 0 89 -54 134 -18 14 -22 72 -6 72 6 0 22 11 35 25 22 21
25 33 25 100 0 42 5 85 11 96 17 32 70 60 109 57 33 -3 35 -6 38 -40z"/>
<path d="M14358 12943 c34 -5 35 -6 34 -85 0 -27 2 -48 6 -48 4 0 7 32 8 70
l0 70 -40 -2 c-37 -1 -38 -2 -8 -5z"/>
<path d="M12895 12920 c-3 -5 -1 -10 4 -10 6 0 11 5 11 10 0 6 -2 10 -4 10 -3
0 -8 -4 -11 -10z"/>
<path d="M12950 12918 c0 -5 14 -8 30 -8 17 0 30 4 30 8 0 4 -13 8 -30 7 -16
0 -30 -3 -30 -7z"/>
<path d="M9930 12540 c-13 -8 -12 -10 3 -10 9 0 17 5 17 10 0 12 -1 12 -20 0z"/>
<path d="M10037 12539 c7 -7 15 -10 18 -7 3 3 -2 9 -12 12 -14 6 -15 5 -6 -5z"/>
<path d="M9909 12509 c-9 -6 1 -8 29 -7 44 1 49 9 9 13 -13 2 -30 -1 -38 -6z"/>
<path d="M9990 12510 c0 -5 5 -10 10 -10 6 0 10 5 10 10 0 6 -4 10 -10 10 -5
0 -10 -4 -10 -10z"/>
<path d="M10020 12510 c0 -5 5 -10 11 -10 5 0 7 5 4 10 -3 6 -8 10 -11 10 -2
0 -4 -4 -4 -10z"/>
<path d="M10050 12509 c0 -5 5 -7 10 -4 6 3 10 8 10 11 0 2 -4 4 -10 4 -5 0
-10 -5 -10 -11z"/>
<path d="M14025 12510 c-22 -4 54 -8 169 -9 115 0 207 1 205 4 -8 8 -332 12
-374 5z"/>
<path d="M11651 12454 c0 -11 3 -14 6 -6 3 7 2 16 -1 19 -3 4 -6 -2 -5 -13z"/>
<path d="M12072 12455 c-4 -9 -17 -17 -28 -17 -25 -2 -26 -51 -1 -56 10 -2 15
-8 12 -13 -4 -5 -1 -9 4 -9 10 0 15 14 12 33 -1 5 3 6 9 2 6 -3 9 -9 6 -13 -2
-4 0 -16 5 -27 5 -14 8 -5 8 32 1 32 -4 53 -11 56 -10 4 -10 6 0 6 6 1 12 6
12 11 0 15 -18 12 -28 -5z"/>
<path d="M11650 12389 c0 -5 5 -7 10 -4 6 3 10 8 10 11 0 2 -4 4 -10 4 -5 0
-10 -5 -10 -11z"/>
<path d="M11650 12329 c0 -5 5 -7 10 -4 6 3 10 8 10 11 0 2 -4 4 -10 4 -5 0
-10 -5 -10 -11z"/>
<path d="M11650 12300 c0 -5 5 -10 11 -10 5 0 7 5 4 10 -3 6 -8 10 -11 10 -2
0 -4 -4 -4 -10z"/>
<path d="M11653 12244 c-1 -19 1 -34 5 -34 8 0 9 56 2 64 -3 2 -6 -11 -7 -30z"/>
<path d="M12996 12235 c-3 -8 -1 -15 4 -15 6 0 10 7 10 15 0 8 -2 15 -4 15 -2
0 -6 -7 -10 -15z"/>
<path d="M12983 12183 c0 -7 4 -13 8 -13 4 0 9 6 12 13 3 8 0 14 -7 14 -7 0
-13 -6 -13 -14z"/>
<path d="M11650 12160 c0 -11 2 -20 4 -20 2 0 6 9 9 20 3 11 1 20 -4 20 -5 0
-9 -9 -9 -20z"/>
<path d="M12946 12145 c-16 -12 -17 -15 -4 -15 9 0 18 7 22 15 7 18 6 18 -18
0z"/>
<path d="M12980 12125 c0 -24 5 -35 15 -35 18 0 20 36 3 43 -10 4 -9 8 2 16
13 9 13 11 -2 11 -14 0 -18 -8 -18 -35z"/>
<path d="M15352 12090 c0 -14 2 -19 5 -12 2 6 2 18 0 25 -3 6 -5 1 -5 -13z"/>
<path d="M12950 12090 c0 -5 5 -10 10 -10 6 0 10 5 10 10 0 6 -4 10 -10 10 -5
0 -10 -4 -10 -10z"/>
<path d="M12980 12043 c0 -18 5 -33 10 -33 6 0 10 -7 10 -15 0 -8 7 -15 15
-15 9 0 18 -7 21 -15 4 -8 11 -15 16 -15 6 0 6 6 -1 14 -7 9 -8 17 -2 20 5 3
12 1 14 -4 3 -6 4 -5 3 2 -2 7 -10 12 -19 10 -12 -2 -15 2 -11 15 5 15 4 16
-5 3 -10 -13 -13 -13 -26 4 -17 23 -19 36 -5 36 6 0 10 6 10 13 0 8 -7 14 -15
14 -10 0 -15 -11 -15 -34z"/>
<path d="M12916 12038 c3 -4 -3 -8 -12 -8 -10 0 -15 -2 -12 -5 3 -3 23 -2 44
3 l39 8 -32 5 c-18 3 -30 2 -27 -3z"/>
<path d="M10270 11990 c0 -33 3 -40 20 -40 11 0 20 5 20 11 0 6 -7 9 -15 5 -8
-3 -15 -1 -15 4 0 6 7 10 15 10 8 0 15 5 15 11 0 6 -7 9 -15 5 -8 -3 -15 -1
-15 3 0 5 5 11 12 13 7 3 6 7 -5 11 -14 5 -17 0 -17 -33z"/>
<path d="M13370 12003 c0 -17 -27 -17 -33 0 -3 7 -6 5 -6 -5 -1 -10 2 -18 7
-19 4 0 17 -2 29 -3 41 -5 37 -16 -3 -12 -43 3 -64 -1 -64 -15 0 -4 6 -6 14
-3 8 3 16 1 19 -3 3 -5 -9 -10 -26 -11 -44 -3 -68 -12 -62 -22 2 -4 -1 -25 -9
-46 l-14 -39 -11 28 c-6 15 -13 27 -16 27 -9 0 6 -44 17 -51 5 -3 9 -9 9 -13
-4 -32 3 -20 22 34 21 59 25 65 54 68 24 2 32 -1 36 -17 3 -12 2 -21 -2 -21
-4 0 -15 -26 -26 -57 -10 -32 -31 -87 -47 -122 -15 -35 -26 -66 -23 -69 2 -3
8 4 12 14 3 10 11 22 15 25 5 3 10 12 12 20 6 35 18 59 28 53 7 -4 7 -9 0 -13
-5 -3 -12 -17 -13 -31 -2 -14 -9 -31 -16 -38 -7 -7 -9 -20 -6 -29 4 -11 3 -14
-5 -9 -7 4 -12 3 -12 -3 0 -5 6 -11 12 -13 7 -3 2 -7 -10 -10 -12 -4 -20 -3
-18 1 3 4 -4 7 -14 7 -10 0 -16 -4 -14 -8 3 -4 -9 -5 -26 -2 -26 6 -29 4 -24
-11 5 -12 9 -13 14 -5 5 7 13 9 21 5 14 -9 134 -14 162 -7 17 4 17 5 0 17 -16
12 -14 13 12 9 17 -2 22 -1 13 2 -16 5 -18 21 -19 135 -1 71 -2 135 -3 142 -4
26 16 34 91 34 l78 1 38 -40 c21 -22 41 -37 44 -34 4 3 1 6 -6 6 -7 0 -11 5
-9 12 13 37 -110 89 -150 64 -8 -5 -11 -3 -10 6 2 7 12 16 23 20 15 5 13 7 -9
5 -18 -1 -31 4 -34 12 -3 10 0 12 11 8 9 -3 19 -2 22 3 4 6 -5 10 -19 10 -15
0 -26 6 -26 13 0 8 -7 14 -15 14 -8 0 -15 -6 -15 -14z m5 -63 c3 -5 -1 -10 -9
-10 -9 0 -16 5 -16 10 0 6 4 10 9 10 6 0 13 -4 16 -10z m50 1 c3 -6 -4 -9 -15
-8 -11 1 -20 5 -20 9 0 11 28 10 35 -1z m-84 -111 c-4 -3 -11 -18 -15 -34 -4
-15 -9 -27 -11 -24 -2 2 1 23 7 47 7 28 14 38 19 30 4 -8 4 -16 0 -19z m-1
-153 c0 -5 -7 -15 -15 -23 -8 -9 -15 -11 -15 -6 0 6 -3 19 -7 29 -6 16 -5 16
10 4 10 -8 17 -9 17 -3 0 6 -4 14 -10 17 -5 3 -10 11 -10 18 0 12 29 -23 30
-36z"/>
<path d="M12961 11986 c-7 -8 -11 -27 -8 -43 4 -27 4 -27 6 5 0 21 6 32 16 32
8 0 15 5 15 10 0 15 -16 12 -29 -4z"/>
<path d="M13298 11983 c7 -3 16 -2 19 1 4 3 -2 6 -13 5 -11 0 -14 -3 -6 -6z"/>
<path d="M10663 11963 c9 -2 23 -2 30 0 6 3 -1 5 -18 5 -16 0 -22 -2 -12 -5z"/>
<path d="M13536 11953 c-3 -4 3 -13 15 -21 11 -8 22 -12 23 -11 5 7 -32 37
-38 32z"/>
<path d="M10686 11941 c-3 -5 1 -11 9 -14 9 -4 12 -1 8 9 -6 16 -10 17 -17 5z"/>
<path d="M10278 11933 c6 -2 18 -2 25 0 6 3 1 5 -13 5 -14 0 -19 -2 -12 -5z"/>
<path d="M13030 11929 c0 -5 14 -9 32 -9 36 0 32 10 -6 14 -14 2 -26 -1 -26
-5z"/>
<path d="M13205 11931 c-3 -6 -2 -11 4 -11 6 0 8 -7 5 -15 -4 -8 -1 -15 4 -15
6 0 9 10 7 21 -5 27 -11 33 -20 20z"/>
<path d="M13113 11923 c9 -2 23 -2 30 0 6 3 -1 5 -18 5 -16 0 -22 -2 -12 -5z"/>
<path d="M13698 11923 c7 -3 16 -2 19 1 4 3 -2 6 -13 5 -11 0 -14 -3 -6 -6z"/>
<path d="M10670 11915 c0 -10 29 -24 34 -17 3 6 -3 12 -14 15 -11 3 -20 4 -20
2z"/>
<path d="M12885 11911 c-3 -5 -1 -12 5 -16 5 -3 10 1 10 9 0 18 -6 21 -15 7z"/>
<path d="M10278 11903 c6 -2 18 -2 25 0 6 3 1 5 -13 5 -14 0 -19 -2 -12 -5z"/>
<path d="M13083 11884 c0 -17 2 -22 7 -13 5 6 6 18 3 26 -8 19 -10 16 -10 -13z"/>
<path d="M13180 11899 c0 -5 5 -7 10 -4 6 3 10 8 10 11 0 2 -4 4 -10 4 -5 0
-10 -5 -10 -11z"/>
<path d="M13587 11899 c7 -7 15 -10 18 -7 3 3 -2 9 -12 12 -14 6 -15 5 -6 -5z"/>
<path d="M13100 11861 c0 -6 4 -13 10 -16 6 -3 7 1 4 9 -7 18 -14 21 -14 7z"/>
<path d="M10680 11838 c0 -19 2 -20 10 -8 13 19 13 30 0 30 -5 0 -10 -10 -10
-22z"/>
<path d="M13446 11844 c-19 -18 -21 -65 -4 -82 7 -7 21 -12 33 -12 28 0 45 19
45 50 0 27 -27 60 -48 60 -6 0 -18 -7 -26 -16z"/>
<path d="M13696 11843 c-6 -14 -5 -15 5 -6 7 7 10 15 7 18 -3 3 -9 -2 -12 -12z"/>
<path d="M13750 11840 c0 -5 5 -10 11 -10 5 0 7 5 4 10 -3 6 -8 10 -11 10 -2
0 -4 -4 -4 -10z"/>
<path d="M13592 11793 c-2 -53 -32 -91 -86 -108 -27 -8 -13 -17 15 -10 36 10
90 86 87 124 -3 43 -14 39 -16 -6z"/>
<path d="M13770 11770 c0 -5 5 -10 10 -10 6 0 10 5 10 10 0 6 -4 10 -10 10 -5
0 -10 -4 -10 -10z"/>
<path d="M10528 11733 c-24 -6 -23 -23 0 -23 10 0 19 7 19 15 0 8 -1 14 -1 14
-1 -1 -9 -3 -18 -6z"/>
<path d="M13800 11700 c-8 -5 -25 -10 -37 -10 -13 0 -23 -4 -23 -9 0 -10 22
-8 61 4 10 4 19 11 19 16 0 11 -1 11 -20 -1z"/>
<path d="M13430 11656 c0 -34 -4 -46 -15 -46 -22 0 -18 -17 5 -23 11 -3 18 0
17 6 -2 10 2 12 34 16 8 1 8 6 -1 16 -10 12 -10 15 4 15 9 0 16 -6 16 -14 0
-8 5 -18 12 -22 7 -5 9 0 6 14 -4 13 0 23 9 26 23 9 26 7 13 -9 -8 -9 -9 -15
-2 -15 6 0 14 5 17 10 4 6 12 8 18 4 7 -3 4 1 -6 9 -12 10 -35 14 -62 13 -35
-3 -44 0 -48 15 -4 16 -2 17 14 8 13 -6 19 -6 19 1 0 5 -4 10 -9 10 -5 0 -16
3 -25 6 -13 5 -16 -2 -16 -40z"/>
<path d="M13664 11691 c4 -6 15 -11 26 -11 27 0 34 -28 8 -32 -14 -2 -22 -11
-23 -25 -2 -32 -9 -36 -54 -35 -22 1 -43 -3 -46 -8 -4 -7 61 -10 184 -10 121
0 191 4 191 10 0 6 -7 10 -16 10 -8 0 -13 4 -10 9 8 12 -4 41 -16 41 -5 0 -7
-4 -4 -9 3 -5 -1 -12 -10 -15 -10 -4 -18 0 -20 11 -4 14 -18 19 -62 21 -72 4
-95 10 -89 26 3 7 0 13 -6 13 -7 0 -23 3 -36 7 -16 6 -21 5 -17 -3z m41 -61
c3 -5 2 -10 -4 -10 -5 0 -13 5 -16 10 -3 6 -2 10 4 10 5 0 13 -4 16 -10z m50
0 c3 -5 1 -10 -4 -10 -6 0 -11 5 -11 10 0 6 2 10 4 10 3 0 8 -4 11 -10z m75
-4 c0 -3 -4 -8 -10 -11 -5 -3 -10 -1 -10 4 0 6 5 11 10 11 6 0 10 -2 10 -4z
m-120 -20 c0 -3 -4 -8 -10 -11 -5 -3 -10 -1 -10 4 0 6 5 11 10 11 6 0 10 -2
10 -4z"/>
<path d="M13160 11679 c0 -5 5 -7 10 -4 6 3 10 8 10 11 0 2 -4 4 -10 4 -5 0
-10 -5 -10 -11z"/>
<path d="M13128 11673 c7 -3 16 -2 19 1 4 3 -2 6 -13 5 -11 0 -14 -3 -6 -6z"/>
<path d="M10580 11639 c0 -5 4 -8 9 -4 6 3 9 -4 8 -15 -1 -22 -13 -27 -19 -8
-3 7 -7 2 -10 -10 -6 -20 -2 -22 33 -23 99 -3 109 -2 109 11 0 5 -7 7 -15 4
-8 -4 -15 -1 -15 4 0 6 8 13 18 15 14 4 14 5 -3 6 -17 1 -18 3 -5 11 13 8 13
10 -2 10 -9 0 -22 -8 -27 -17 -10 -17 -10 -17 -11 1 0 13 -5 17 -20 13 -11 -3
-23 -1 -26 4 -7 12 -24 11 -24 -2z"/>
<path d="M13650 11624 c0 -14 4 -23 9 -20 5 3 7 15 4 26 -7 28 -13 25 -13 -6z"/>
<path d="M10278 11633 c7 -3 16 -2 19 1 4 3 -2 6 -13 5 -11 0 -14 -3 -6 -6z"/>
<path d="M10497 11626 c-4 -10 -3 -15 3 -11 5 3 15 -3 22 -15 15 -23 33 -27
24 -5 -3 8 -1 15 3 15 19 0 18 26 0 27 -11 1 -17 -2 -14 -8 4 -5 0 -9 -9 -9
-8 0 -16 5 -18 12 -3 7 -7 5 -11 -6z"/>
<path d="M13610 11628 c0 -9 5 -20 10 -23 13 -8 13 5 0 25 -8 13 -10 13 -10
-2z"/>
<path d="M10285 11590 c-3 -5 -1 -10 4 -10 6 0 11 5 11 10 0 6 -2 10 -4 10 -3
0 -8 -4 -11 -10z"/>
<path d="M10486 11592 c-2 -4 4 -9 15 -9 10 -1 19 2 19 8 0 11 -27 12 -34 1z"/>
<path d="M13125 11590 c3 -5 8 -10 11 -10 2 0 4 5 4 10 0 6 -5 10 -11 10 -5 0
-7 -4 -4 -10z"/>
<path d="M13530 11580 c-12 -8 -10 -10 8 -10 13 0 20 4 17 10 -7 12 -6 12 -25
0z"/>
<path d="M15350 11343 l0 -223 122 0 c67 0 119 2 117 4 -2 3 -53 6 -112 8 -86
2 -107 6 -108 18 -6 105 -3 167 10 183 12 14 12 18 2 15 -21 -5 -25 20 -4 25
15 4 15 5 2 6 -14 1 -17 14 -16 84 0 45 4 84 8 87 14 10 124 -5 122 -16 -1 -6
5 -11 12 -11 11 0 12 4 4 14 -9 10 -3 13 35 13 45 0 63 -14 29 -23 -10 -2 -2
-4 17 -4 19 0 29 2 23 4 -18 6 -16 23 2 23 8 0 15 -7 15 -16 0 -8 5 -12 10 -9
6 4 8 10 5 15 -3 5 24 9 61 9 36 0 69 2 72 5 5 6 -50 8 -290 10 l-138 1 0
-222z"/>
<path d="M15780 11275 c0 -8 4 -15 10 -15 5 0 7 7 4 15 -4 8 -8 15 -10 15 -2
0 -4 -7 -4 -15z"/>
<path d="M15782 11220 c-1 -17 2 -30 6 -30 5 0 8 11 8 25 -2 35 -11 39 -14 5z"/>
<path d="M15380 11160 c0 -5 7 -7 15 -4 8 4 15 8 15 10 0 2 -7 4 -15 4 -8 0
-15 -4 -15 -10z"/>
<path d="M15780 11160 c0 -5 5 -10 11 -10 5 0 7 5 4 10 -3 6 -8 10 -11 10 -2
0 -4 -4 -4 -10z"/>
<path d="M15650 11129 c-44 -5 -34 -6 49 -7 57 -1 102 1 99 4 -9 8 -85 10
-148 3z"/>
<path d="M13444 11099 c2 -15 20 -13 24 3 3 10 2 10 -6 -1 -7 -9 -11 -10 -15
-2 -4 7 -5 8 -3 0z"/>
<path d="M13133 10782 c-7 -4 -9 -13 -4 -21 6 -9 10 -7 14 8 3 12 4 21 4 21
-1 0 -7 -4 -14 -8z"/>
<path d="M13063 10763 c-20 -8 -15 -19 10 -20 12 0 16 1 9 4 -6 3 -10 9 -6 14
6 10 5 10 -13 2z"/>
<path d="M13070 10692 c0 -11 39 -12 45 -1 4 5 -5 9 -19 9 -14 0 -26 -4 -26
-8z"/>
<path d="M11780 10211 c0 -6 4 -13 10 -16 6 -3 7 1 4 9 -7 18 -14 21 -14 7z"/>
<path d="M11654 10201 c5 -8 56 -3 56 5 0 2 -14 4 -31 4 -16 0 -28 -4 -25 -9z"/>
<path d="M11720 10199 c0 -5 5 -7 10 -4 6 3 10 8 10 11 0 2 -4 4 -10 4 -5 0
-10 -5 -10 -11z"/>
<path d="M11755 10200 c3 -5 8 -10 11 -10 2 0 4 5 4 10 0 6 -5 10 -11 10 -5 0
-7 -4 -4 -10z"/>
<path d="M12048 10203 c7 -3 16 -2 19 1 4 3 -2 6 -13 5 -11 0 -14 -3 -6 -6z"/>
<path d="M15183 10173 c32 -2 81 -2 110 0 29 2 3 3 -58 3 -60 0 -84 -1 -52 -3z"/>
<path d="M15321 10134 c0 -11 3 -14 6 -6 3 7 2 16 -1 19 -3 4 -6 -2 -5 -13z"/>
<path d="M14883 9955 c0 -149 1 -161 9 -100 6 38 15 73 21 77 9 6 8 11 -3 18
-13 9 -13 10 2 8 9 -2 17 2 17 7 0 6 -7 9 -15 7 -14 -3 -20 23 -6 31 4 2 2 2
-5 1 -8 -2 -13 17 -16 59 -2 34 -3 -14 -4 -108z"/>
<path d="M15320 10095 c0 -8 4 -15 10 -15 5 0 7 7 4 15 -4 8 -8 15 -10 15 -2
0 -4 -7 -4 -15z"/>
<path d="M14930 9940 c0 -5 5 -10 11 -10 5 0 7 5 4 10 -3 6 -8 10 -11 10 -2 0
-4 -4 -4 -10z"/>
<path d="M14918 9883 c7 -3 16 -2 19 1 4 3 -2 6 -13 5 -11 0 -14 -3 -6 -6z"/>
<path d="M15191 9774 c0 -11 3 -14 6 -6 3 7 2 16 -1 19 -3 4 -6 -2 -5 -13z"/>
<path d="M14881 9758 l-1 -28 232 0 c127 0 229 3 225 6 -3 3 -105 6 -226 5
l-220 -1 -4 23 c-4 19 -4 18 -6 -5z"/>
<path d="M15125 9760 c3 -5 8 -10 11 -10 2 0 4 5 4 10 0 6 -5 10 -11 10 -5 0
-7 -4 -4 -10z"/>
<path d="M13939 9618 c0 -40 -1 -187 -2 -327 -2 -172 -6 -256 -13 -258 -6 -2
-10 -18 -8 -34 2 -17 1 -36 -4 -43 -4 -6 -10 16 -13 49 l-6 60 -1 -57 c-2 -50
-4 -57 -22 -55 -12 1 -20 8 -20 20 0 16 -3 17 -15 7 -18 -15 -20 1 -2 19 10
11 8 11 -10 0 -18 -11 -20 -16 -10 -28 9 -11 9 -15 0 -18 -31 -11 -9 -22 32
-17 28 3 45 1 45 -6 0 -6 -47 -10 -135 -10 -74 0 -135 -4 -135 -9 0 -4 74 -9
165 -10 l165 -2 0 395 c0 218 -2 396 -5 396 -3 0 -5 -33 -6 -72z m-4 -688 c3
-6 -4 -10 -17 -10 -18 0 -20 2 -8 10 19 12 18 12 25 0z"/>
<path d="M13426 9642 c6 -4 14 -14 17 -22 4 -10 6 -8 6 8 1 15 -5 22 -16 22
-11 0 -14 -3 -7 -8z"/>
<path d="M13365 9555 c0 -46 9 -59 19 -27 7 22 3 49 -10 62 -5 5 -9 -8 -9 -35z"/>
<path d="M13415 9572 c-3 -3 -5 -12 -5 -20 0 -12 3 -12 15 -2 8 6 19 9 24 5 6
-3 8 0 5 8 -5 13 -29 19 -39 9z"/>
<path d="M13815 9540 c3 -5 8 -10 11 -10 2 0 4 5 4 10 0 6 -5 10 -11 10 -5 0
-7 -4 -4 -10z"/>
<path d="M13430 9530 c-13 -8 -12 -10 3 -10 9 0 17 5 17 10 0 12 -1 12 -20 0z"/>
<path d="M13770 9530 c0 -5 5 -10 11 -10 5 0 7 5 4 10 -3 6 -8 10 -11 10 -2 0
-4 -4 -4 -10z"/>
<path d="M13820 9489 c0 -11 4 -18 10 -14 5 3 7 12 3 20 -7 21 -13 19 -13 -6z"/>
<path d="M13140 9469 c0 -5 5 -7 10 -4 6 3 10 8 10 11 0 2 -4 4 -10 4 -5 0
-10 -5 -10 -11z"/>
<path d="M13535 9470 c3 -5 8 -10 11 -10 2 0 4 5 4 10 0 6 -5 10 -11 10 -5 0
-7 -4 -4 -10z"/>
<path d="M13148 9432 c-4 -14 -1 -19 11 -18 11 1 15 -6 13 -21 -3 -18 1 -23
20 -22 22 0 22 1 3 10 -19 8 -19 9 -1 6 27 -3 26 -20 -1 -32 -33 -14 -28 -28
7 -20 19 4 30 3 30 -4 0 -7 10 -9 25 -5 16 4 25 2 25 -6 0 -9 -13 -10 -45 -6
-37 6 -45 4 -45 -8 0 -9 5 -16 10 -16 6 0 10 5 10 10 0 6 5 10 11 10 5 0 8 -4
4 -9 -3 -6 3 -8 14 -6 25 5 62 -5 56 -15 -3 -5 -15 -6 -28 -3 -12 3 -19 2 -15
-2 13 -14 58 -14 58 0 0 7 8 12 18 10 9 -1 25 2 35 7 10 5 17 5 17 -1 0 -5 -4
-11 -10 -13 -5 -2 -6 -9 -1 -16 5 -9 19 16 40 73 18 48 30 89 27 92 -3 3 -9
-2 -12 -11 -5 -14 -9 -15 -15 -4 -7 10 -9 9 -9 -4 0 -10 4 -18 9 -18 5 0 4
-13 -2 -30 -9 -22 -14 -27 -24 -18 -8 6 -16 8 -20 4 -4 -3 2 -13 13 -21 13
-11 14 -14 4 -13 -8 2 -17 6 -20 9 -3 3 -47 27 -97 53 -51 26 -97 55 -101 63
-8 13 -10 12 -14 -5z m197 -130 c-3 -3 -11 0 -18 7 -9 10 -8 11 6 5 10 -3 15
-9 12 -12z"/>
<path d="M13648 9423 c7 -3 16 -2 19 1 4 3 -2 6 -13 5 -11 0 -14 -3 -6 -6z"/>
<path d="M13610 9410 c-13 -8 -12 -10 3 -10 9 0 17 5 17 10 0 12 -1 12 -20 0z"/>
<path d="M13044 9395 c-3 -8 -4 -20 -2 -27 3 -7 7 -1 10 15 6 29 1 36 -8 12z"/>
<path d="M13491 9358 c-16 -43 -22 -68 -18 -68 3 0 12 20 20 45 16 45 14 65
-2 23z"/>
<path d="M13686 9355 c-11 -8 -15 -15 -9 -15 6 0 16 7 23 15 16 19 11 19 -14
0z"/>
<path d="M13043 9123 c2 -222 3 -228 22 -225 24 5 30 10 22 18 -4 4 -13 1 -21
-5 -12 -10 -13 -8 -9 11 3 13 11 29 17 37 8 11 8 13 -1 7 -9 -5 -13 0 -13 13
0 12 6 21 13 21 8 0 8 3 -2 9 -8 5 -11 16 -8 26 4 9 3 14 -1 11 -4 -2 -7 28
-6 67 2 94 3 97 12 95 4 -2 7 2 7 7 0 6 -3 9 -7 8 -12 -4 -10 15 2 22 6 3 10
12 9 18 0 9 -2 9 -6 0 -11 -28 -19 -10 -17 37 2 28 -1 50 -5 50 -5 0 -8 -102
-8 -227z"/>
<path d="M13140 9298 c0 -11 12 -10 30 2 12 7 10 9 -8 7 -12 0 -22 -5 -22 -9z"/>
<path d="M12368 9283 c7 -3 16 -2 19 1 4 3 -2 6 -13 5 -11 0 -14 -3 -6 -6z"/>
<path d="M12408 9283 c7 -3 16 -2 19 1 4 3 -2 6 -13 5 -11 0 -14 -3 -6 -6z"/>
<path d="M12448 9283 c7 -3 16 -2 19 1 4 3 -2 6 -13 5 -11 0 -14 -3 -6 -6z"/>
<path d="M13090 9268 c0 -4 7 -8 15 -8 8 0 15 4 15 8 0 5 -7 9 -15 9 -8 0 -15
-4 -15 -9z"/>
<path d="M13333 9262 c1 -14 5 -18 11 -12 7 7 6 14 -1 21 -9 9 -12 7 -10 -9z"/>
<path d="M13466 9244 c-5 -14 -4 -15 9 -4 17 14 19 20 6 20 -5 0 -12 -7 -15
-16z"/>
<path d="M13180 9240 c0 -5 5 -10 11 -10 5 0 7 5 4 10 -3 6 -8 10 -11 10 -2 0
-4 -4 -4 -10z"/>
<path d="M13101 9202 c-8 -14 -6 -19 5 -19 8 0 13 6 10 13 -3 7 4 15 17 17
l22 4 -22 2 c-12 0 -27 -7 -32 -17z"/>
<path d="M13860 9161 c0 -6 4 -13 10 -16 6 -3 7 1 4 9 -7 18 -14 21 -14 7z"/>
<path d="M13780 8999 c0 -5 5 -7 10 -4 6 3 10 8 10 11 0 2 -4 4 -10 4 -5 0
-10 -5 -10 -11z"/>
<path d="M13866 8987 c3 -10 9 -15 12 -12 3 3 0 11 -7 18 -10 9 -11 8 -5 -6z"/>
<path d="M13755 8970 c-4 -6 -13 -9 -20 -6 -8 3 -11 -2 -8 -15 7 -26 29 -24
36 3 7 25 2 35 -8 18z"/>
<path d="M13781 8961 c-7 -5 -11 -15 -9 -22 3 -10 8 -7 17 9 13 24 12 26 -8
13z"/>
<path d="M13080 8945 c-9 -10 -9 -15 -1 -15 6 0 11 5 11 11 0 5 5 7 12 3 7 -4
8 -3 4 4 -9 15 -11 15 -26 -3z"/>
<path d="M13675 8950 c-7 -12 -7 -12 22 -15 12 -1 20 1 17 6 -2 4 -12 5 -21 2
-11 -4 -14 -3 -9 5 4 7 5 12 2 12 -3 0 -8 -4 -11 -10z"/>
<path d="M13113 8933 c-15 -5 -17 -23 -4 -23 5 0 11 7 15 15 3 8 4 15 3 14 -1
0 -8 -3 -14 -6z"/>
<path d="M13140 8909 c0 -5 5 -7 10 -4 6 3 10 8 10 11 0 2 -4 4 -10 4 -5 0
-10 -5 -10 -11z"/>
<path d="M13485 8910 c-3 -5 1 -10 9 -10 8 0 18 5 21 10 3 6 -1 10 -9 10 -8 0
-18 -4 -21 -10z"/>
<path d="M13588 8913 c7 -3 16 -2 19 1 4 3 -2 6 -13 5 -11 0 -14 -3 -6 -6z"/>
<path d="M13960 8835 c0 -46 3 -55 18 -55 14 0 15 2 2 10 -13 9 -13 11 0 20
11 7 12 12 4 20 -7 7 -9 20 -7 30 4 16 17 20 82 23 l76 3 -87 2 -88 2 0 -55z"/>
<path d="M14252 8885 c3 -3 37 -6 76 -6 l71 -1 4 -51 3 -52 2 58 2 57 -82 0
c-45 0 -79 -2 -76 -5z"/>
<path d="M14168 8763 c6 -2 10 -9 6 -14 -9 -15 2 -10 16 6 10 13 9 15 -11 14
-13 0 -18 -3 -11 -6z"/>
<path d="M14156 8727 c3 -10 9 -15 12 -12 3 3 0 11 -7 18 -10 9 -11 8 -5 -6z"/>
<path d="M14098 8703 c7 -3 16 -2 19 1 4 3 -2 6 -13 5 -11 0 -14 -3 -6 -6z"/>
<path d="M14131 8693 c-12 -13 -11 -14 9 -8 15 5 20 4 16 -4 -4 -6 -3 -11 2
-11 6 0 13 8 16 17 4 10 4 14 0 10 -4 -4 -12 -3 -18 2 -7 6 -16 3 -25 -6z"/>
<path d="M13963 8635 c0 -22 2 -30 4 -17 2 12 2 30 0 40 -3 9 -5 -1 -4 -23z"/>
<path d="M14123 8653 c9 -2 23 -2 30 0 6 3 -1 5 -18 5 -16 0 -22 -2 -12 -5z"/>
<path d="M13962 8508 l-2 -68 225 0 225 0 -1 48 -2 47 -6 -40 -6 -40 -202 -1
c-171 -2 -203 1 -203 13 0 8 5 11 12 7 7 -4 8 -3 4 4 -4 7 -13 12 -21 12 -9 0
-15 15 -18 43 -2 30 -4 23 -5 -25z"/>
</g>
</svg>
